<mxfile host="app.diagrams.net" agent="Mozilla/5.0 (Windows NT 10.0; Win64; x64) AppleWebKit/537.36 (KHTML, like Gecko) Chrome/134.0.0.0 Safari/537.36" version="26.1.3">
  <diagram id="R2lEEEUBdFMjLlhIrx00" name="Page-1">
    <mxGraphModel dx="1615" dy="1903" grid="1" gridSize="10" guides="1" tooltips="1" connect="1" arrows="1" fold="1" page="1" pageScale="1" pageWidth="850" pageHeight="1100" background="#D7D7D7" math="0" shadow="0" extFonts="Permanent Marker^https://fonts.googleapis.com/css?family=Permanent+Marker">
      <root>
        <mxCell id="0" />
        <mxCell id="1" parent="0" />
        <mxCell id="fs_kRZp0xW7BOfJZ6GTR-1" value="Festival" style="swimlane;childLayout=stackLayout;horizontal=1;startSize=40;horizontalStack=0;rounded=1;fontSize=14;fontStyle=0;strokeWidth=2;resizeParent=0;resizeLast=1;shadow=0;dashed=0;align=center;arcSize=4;whiteSpace=wrap;html=1;" parent="1" vertex="1">
          <mxGeometry x="1175" width="100" height="110" as="geometry" />
        </mxCell>
        <mxCell id="fs_kRZp0xW7BOfJZ6GTR-2" value="&lt;div&gt;&lt;u&gt;year&lt;/u&gt;&lt;/div&gt;&lt;div&gt;start_date&lt;/div&gt;&lt;div&gt;duration_days&lt;/div&gt;&lt;div&gt;end_date()&lt;/div&gt;&lt;div&gt;&lt;span style=&quot;background-color: transparent; text-wrap-mode: nowrap; color: rgba(0, 0, 0, 0); font-family: monospace; font-size: 0px;&quot;&gt;%3CmxGraphModel%3E%3Croot%3E%3CmxCell%20id%3D%220%22%2F%3E%3CmxCell%20id%3D%221%22%20parent%3D%220%22%2F%3E%3CmxCell%20id%3D%222%22%20value%3D%22Location%22%20style%3D%22swimlane%3BchildLayout%3DstackLayout%3Bhorizontal%3D1%3BstartSize%3D50%3BhorizontalStack%3D0%3Brounded%3D1%3BfontSize%3D14%3BfontStyle%3D0%3BstrokeWidth%3D2%3BresizeParent%3D0%3BresizeLast%3D1%3Bshadow%3D0%3Bdashed%3D0%3Balign%3Dcenter%3BarcSize%3D4%3BwhiteSpace%3Dwrap%3Bhtml%3D1%3B%22%20vertex%3D%221%22%20parent%3D%221%22%3E%3CmxGeometry%20x%3D%22570%22%20y%3D%22350%22%20width%3D%22100%22%20height%3D%22160%22%20as%3D%22geometry%22%2F%3E%3C%2FmxCell%3E%3CmxCell%20id%3D%223%22%20value%3D%22%26lt%3Bu%26gt%3Blocation_id%26lt%3B%2Fu%26gt%3B%26lt%3Bdiv%26gt%3Baddress%26lt%3B%2Fdiv%26gt%3B%26lt%3Bdiv%26gt%3Bcity%26lt%3B%2Fdiv%26gt%3B%26lt%3Bdiv%26gt%3Bcountry%26lt%3B%2Fdiv%26gt%3B%26lt%3Bdiv%26gt%3Bcontinent%26lt%3B%2Fdiv%26gt%3B%26lt%3Bdiv%26gt%3Blatitude%26lt%3B%2Fdiv%26gt%3B%26lt%3Bdiv%26gt%3Blongtitude%26lt%3B%2Fdiv%26gt%3B%22%20style%3D%22align%3Dleft%3BstrokeColor%3Dnone%3BfillColor%3Dnone%3BspacingLeft%3D4%3BspacingRight%3D4%3BfontSize%3D12%3BverticalAlign%3Dtop%3Bresizable%3D0%3Brotatable%3D0%3Bpart%3D1%3Bhtml%3D1%3BwhiteSpace%3Dwrap%3B%22%20vertex%3D%221%22%20parent%3D%222%22%3E%3CmxGeometry%20y%3D%2250%22%20width%3D%22100%22%20height%3D%22110%22%20as%3D%22geometry%22%2F%3E%3C%2FmxCell%3E%3C%2Froot%3E%3C%2FmxGraphModel%3E&lt;/span&gt;&lt;/div&gt;" style="align=left;strokeColor=none;fillColor=none;spacingLeft=4;spacingRight=4;fontSize=12;verticalAlign=top;resizable=0;rotatable=0;part=1;html=1;whiteSpace=wrap;" parent="fs_kRZp0xW7BOfJZ6GTR-1" vertex="1">
          <mxGeometry y="40" width="100" height="70" as="geometry" />
        </mxCell>
        <mxCell id="fs_kRZp0xW7BOfJZ6GTR-3" value="Location" style="swimlane;childLayout=stackLayout;horizontal=1;startSize=40;horizontalStack=0;rounded=1;fontSize=14;fontStyle=0;strokeWidth=2;resizeParent=0;resizeLast=1;shadow=0;dashed=0;align=center;arcSize=4;whiteSpace=wrap;html=1;" parent="1" vertex="1">
          <mxGeometry x="1570" y="-60" width="100" height="170" as="geometry" />
        </mxCell>
        <mxCell id="fs_kRZp0xW7BOfJZ6GTR-4" value="&lt;u&gt;location_id&lt;/u&gt;&lt;div&gt;name&lt;/div&gt;&lt;div&gt;address&lt;/div&gt;&lt;div&gt;city&lt;/div&gt;&lt;div&gt;country&lt;/div&gt;&lt;div&gt;continent&lt;/div&gt;&lt;div&gt;latitude&lt;/div&gt;&lt;div&gt;longtitude&lt;/div&gt;" style="align=left;strokeColor=none;fillColor=none;spacingLeft=4;spacingRight=4;fontSize=12;verticalAlign=top;resizable=0;rotatable=0;part=1;html=1;whiteSpace=wrap;" parent="fs_kRZp0xW7BOfJZ6GTR-3" vertex="1">
          <mxGeometry y="40" width="100" height="130" as="geometry" />
        </mxCell>
        <mxCell id="fs_kRZp0xW7BOfJZ6GTR-6" value="Event" style="swimlane;childLayout=stackLayout;horizontal=1;startSize=40;horizontalStack=0;rounded=1;fontSize=14;fontStyle=0;strokeWidth=2;resizeParent=0;resizeLast=1;shadow=0;dashed=0;align=center;arcSize=4;whiteSpace=wrap;html=1;" parent="1" vertex="1">
          <mxGeometry x="1040" y="190" width="100" height="140" as="geometry" />
        </mxCell>
        <mxCell id="fs_kRZp0xW7BOfJZ6GTR-7" value="&lt;u&gt;event_id&lt;/u&gt;&lt;div&gt;date&lt;/div&gt;&lt;div&gt;festival_day&lt;/div&gt;&lt;div&gt;start_time&lt;br&gt;&lt;/div&gt;&lt;div&gt;end_time&lt;/div&gt;&lt;div&gt;number_of_perf()&lt;/div&gt;" style="align=left;strokeColor=none;fillColor=none;spacingLeft=4;spacingRight=4;fontSize=12;verticalAlign=top;resizable=0;rotatable=0;part=1;html=1;whiteSpace=wrap;" parent="fs_kRZp0xW7BOfJZ6GTR-6" vertex="1">
          <mxGeometry y="40" width="100" height="100" as="geometry" />
        </mxCell>
        <mxCell id="fs_kRZp0xW7BOfJZ6GTR-8" value="Stage" style="swimlane;childLayout=stackLayout;horizontal=1;startSize=40;horizontalStack=0;rounded=1;fontSize=14;fontStyle=0;strokeWidth=2;resizeParent=0;resizeLast=1;shadow=0;dashed=0;align=center;arcSize=4;whiteSpace=wrap;html=1;" parent="1" vertex="1">
          <mxGeometry x="1570" y="216.25" width="100" height="110" as="geometry" />
        </mxCell>
        <mxCell id="fs_kRZp0xW7BOfJZ6GTR-9" value="&lt;u&gt;stage_id&lt;/u&gt;&lt;div&gt;name&lt;/div&gt;&lt;div&gt;max_capacity&lt;/div&gt;&lt;div&gt;description&lt;/div&gt;" style="align=left;strokeColor=none;fillColor=none;spacingLeft=4;spacingRight=4;fontSize=12;verticalAlign=top;resizable=0;rotatable=0;part=1;html=1;whiteSpace=wrap;" parent="fs_kRZp0xW7BOfJZ6GTR-8" vertex="1">
          <mxGeometry y="40" width="100" height="70" as="geometry" />
        </mxCell>
        <mxCell id="fs_kRZp0xW7BOfJZ6GTR-10" value="Performance" style="swimlane;childLayout=stackLayout;horizontal=1;startSize=40;horizontalStack=0;rounded=1;fontSize=14;fontStyle=0;strokeWidth=2;resizeParent=0;resizeLast=1;shadow=0;dashed=0;align=center;arcSize=4;whiteSpace=wrap;html=1;" parent="1" vertex="1">
          <mxGeometry x="1230.0000000000002" y="380" width="100" height="140" as="geometry" />
        </mxCell>
        <mxCell id="fs_kRZp0xW7BOfJZ6GTR-11" value="&lt;u&gt;performance_id&lt;/u&gt;&lt;br&gt;&lt;div&gt;event_order&lt;br&gt;start_time&lt;br&gt;duration&lt;br&gt;end_time()&lt;/div&gt;" style="align=left;strokeColor=none;fillColor=none;spacingLeft=4;spacingRight=4;fontSize=12;verticalAlign=top;resizable=0;rotatable=0;part=1;html=1;whiteSpace=wrap;" parent="fs_kRZp0xW7BOfJZ6GTR-10" vertex="1">
          <mxGeometry y="40" width="100" height="100" as="geometry" />
        </mxCell>
        <mxCell id="fs_kRZp0xW7BOfJZ6GTR-12" value="Staff" style="swimlane;childLayout=stackLayout;horizontal=1;startSize=36;horizontalStack=0;rounded=1;fontSize=14;fontStyle=0;strokeWidth=2;resizeParent=0;resizeLast=1;shadow=0;dashed=0;align=center;arcSize=4;whiteSpace=wrap;html=1;" parent="1" vertex="1">
          <mxGeometry x="870" width="100" height="150" as="geometry" />
        </mxCell>
        <mxCell id="fs_kRZp0xW7BOfJZ6GTR-13" value="&lt;u&gt;staff_id&lt;/u&gt;&lt;div&gt;first_name&lt;/div&gt;&lt;div&gt;last_name&lt;/div&gt;&lt;div&gt;birth_date&lt;/div&gt;&lt;div&gt;age()&lt;/div&gt;&lt;div&gt;&lt;br&gt;&lt;/div&gt;" style="align=left;strokeColor=none;fillColor=none;spacingLeft=4;spacingRight=4;fontSize=12;verticalAlign=top;resizable=0;rotatable=0;part=1;html=1;whiteSpace=wrap;" parent="fs_kRZp0xW7BOfJZ6GTR-12" vertex="1">
          <mxGeometry y="36" width="100" height="114" as="geometry" />
        </mxCell>
        <mxCell id="fs_kRZp0xW7BOfJZ6GTR-14" value="Performer" style="swimlane;childLayout=stackLayout;horizontal=1;startSize=40;horizontalStack=0;rounded=1;fontSize=14;fontStyle=0;strokeWidth=2;resizeParent=0;resizeLast=1;shadow=0;dashed=0;align=center;arcSize=4;whiteSpace=wrap;html=1;" parent="1" vertex="1">
          <mxGeometry x="1570.0000000000002" y="375" width="100" height="110" as="geometry" />
        </mxCell>
        <mxCell id="fs_kRZp0xW7BOfJZ6GTR-15" value="&lt;u&gt;performer_id&lt;/u&gt;&lt;div&gt;name&lt;br&gt;ig&lt;br&gt;site&lt;br&gt;&lt;/div&gt;" style="align=left;strokeColor=none;fillColor=none;spacingLeft=4;spacingRight=4;fontSize=12;verticalAlign=top;resizable=0;rotatable=0;part=1;html=1;whiteSpace=wrap;" parent="fs_kRZp0xW7BOfJZ6GTR-14" vertex="1">
          <mxGeometry y="40" width="100" height="70" as="geometry" />
        </mxCell>
        <mxCell id="7mpWaX-R9mBhcbKAR2uK-18" style="edgeStyle=orthogonalEdgeStyle;rounded=0;orthogonalLoop=1;jettySize=auto;html=1;exitX=0.5;exitY=0;exitDx=0;exitDy=0;entryX=0.5;entryY=0;entryDx=0;entryDy=0;endArrow=none;startFill=0;" edge="1" parent="1" source="fs_kRZp0xW7BOfJZ6GTR-16" target="fs_kRZp0xW7BOfJZ6GTR-18">
          <mxGeometry relative="1" as="geometry">
            <Array as="points">
              <mxPoint x="1550" y="560" />
              <mxPoint x="1690" y="560" />
            </Array>
          </mxGeometry>
        </mxCell>
        <mxCell id="fs_kRZp0xW7BOfJZ6GTR-16" value="Artist" style="swimlane;childLayout=stackLayout;horizontal=1;startSize=30;horizontalStack=0;rounded=1;fontSize=14;fontStyle=0;strokeWidth=2;resizeParent=0;resizeLast=1;shadow=0;dashed=0;align=center;arcSize=4;whiteSpace=wrap;html=1;" parent="1" vertex="1">
          <mxGeometry x="1500" y="575" width="100" height="80" as="geometry">
            <mxRectangle x="600" y="1090" width="70" height="50" as="alternateBounds" />
          </mxGeometry>
        </mxCell>
        <mxCell id="fs_kRZp0xW7BOfJZ6GTR-17" value="&lt;div&gt;&lt;span style=&quot;background-color: transparent; color: light-dark(rgb(0, 0, 0), rgb(255, 255, 255));&quot;&gt;stage_name&lt;/span&gt;&lt;/div&gt;&lt;div&gt;birth_date&lt;/div&gt;" style="align=left;strokeColor=none;fillColor=none;spacingLeft=4;spacingRight=4;fontSize=12;verticalAlign=top;resizable=0;rotatable=0;part=1;html=1;whiteSpace=wrap;" parent="fs_kRZp0xW7BOfJZ6GTR-16" vertex="1">
          <mxGeometry y="30" width="100" height="50" as="geometry" />
        </mxCell>
        <mxCell id="fs_kRZp0xW7BOfJZ6GTR-18" value="Band" style="swimlane;childLayout=stackLayout;horizontal=1;startSize=30;horizontalStack=0;rounded=1;fontSize=14;fontStyle=0;strokeWidth=2;resizeParent=0;resizeLast=1;shadow=0;dashed=0;align=center;arcSize=4;whiteSpace=wrap;html=1;" parent="1" vertex="1">
          <mxGeometry x="1640.0000000000002" y="575" width="100" height="80" as="geometry" />
        </mxCell>
        <mxCell id="fs_kRZp0xW7BOfJZ6GTR-19" value="&lt;div&gt;&lt;span style=&quot;background-color: transparent; color: light-dark(rgb(0, 0, 0), rgb(255, 255, 255));&quot;&gt;formation_date&lt;/span&gt;&lt;/div&gt;" style="align=left;strokeColor=none;fillColor=none;spacingLeft=4;spacingRight=4;fontSize=12;verticalAlign=top;resizable=0;rotatable=0;part=1;html=1;whiteSpace=wrap;" parent="fs_kRZp0xW7BOfJZ6GTR-18" vertex="1">
          <mxGeometry y="30" width="100" height="50" as="geometry" />
        </mxCell>
        <mxCell id="fs_kRZp0xW7BOfJZ6GTR-20" value="&lt;font style=&quot;font-size: 11px;&quot;&gt;All (?) entity sets include&amp;nbsp;&lt;/font&gt;&lt;div&gt;&lt;font style=&quot;font-size: 11px;&quot;&gt;two additional attributes:&lt;br&gt;image_url&lt;br&gt;alt_text&lt;/font&gt;&lt;/div&gt;" style="text;html=1;align=left;verticalAlign=middle;whiteSpace=wrap;rounded=0;fillColor=#f5f5f5;strokeColor=#666666;fontColor=#333333;fontStyle=0" parent="1" vertex="1">
          <mxGeometry x="140.5" y="-60" width="130" height="60" as="geometry" />
        </mxCell>
        <mxCell id="fs_kRZp0xW7BOfJZ6GTR-24" value="fest_loc" style="shape=rhombus;perimeter=rhombusPerimeter;whiteSpace=wrap;html=1;align=center;" parent="1" vertex="1">
          <mxGeometry x="1370" y="45" width="100" height="60" as="geometry" />
        </mxCell>
        <mxCell id="fs_kRZp0xW7BOfJZ6GTR-25" value="part_of" style="shape=rhombus;perimeter=rhombusPerimeter;whiteSpace=wrap;html=1;align=center;" parent="1" vertex="1">
          <mxGeometry x="1580" y="142.5" width="80" height="40" as="geometry" />
        </mxCell>
        <mxCell id="fs_kRZp0xW7BOfJZ6GTR-26" value="consists_of" style="shape=rhombus;perimeter=rhombusPerimeter;whiteSpace=wrap;html=1;align=center;" parent="1" vertex="1">
          <mxGeometry x="1050" y="110" width="80" height="40" as="geometry" />
        </mxCell>
        <mxCell id="fs_kRZp0xW7BOfJZ6GTR-27" value="hosted_on" style="shape=rhombus;perimeter=rhombusPerimeter;whiteSpace=wrap;html=1;align=center;" parent="1" vertex="1">
          <mxGeometry x="1320" y="230" width="100" height="60" as="geometry" />
        </mxCell>
        <mxCell id="fs_kRZp0xW7BOfJZ6GTR-28" value="works_on" style="shape=associativeEntity;whiteSpace=wrap;html=1;align=center;" parent="1" vertex="1">
          <mxGeometry x="880" y="205" width="80" height="50" as="geometry" />
        </mxCell>
        <mxCell id="fs_kRZp0xW7BOfJZ6GTR-29" value="includes" style="shape=rhombus;perimeter=rhombusPerimeter;whiteSpace=wrap;html=1;align=center;" parent="1" vertex="1">
          <mxGeometry x="1050.0000000000002" y="400" width="80" height="40" as="geometry" />
        </mxCell>
        <mxCell id="fs_kRZp0xW7BOfJZ6GTR-30" value="performs" style="shape=rhombus;perimeter=rhombusPerimeter;whiteSpace=wrap;html=1;align=center;" parent="1" vertex="1">
          <mxGeometry x="1410.0000000000002" y="400" width="80" height="40" as="geometry" />
        </mxCell>
        <mxCell id="fs_kRZp0xW7BOfJZ6GTR-38" value="Equipment" style="swimlane;childLayout=stackLayout;horizontal=1;startSize=50;horizontalStack=0;rounded=1;fontSize=14;fontStyle=0;strokeWidth=2;resizeParent=0;resizeLast=1;shadow=0;dashed=0;align=center;arcSize=4;whiteSpace=wrap;html=1;" parent="1" vertex="1">
          <mxGeometry x="1715" y="30" width="90" height="110" as="geometry" />
        </mxCell>
        <mxCell id="fs_kRZp0xW7BOfJZ6GTR-39" value="&lt;u&gt;equipment_id&lt;/u&gt;&lt;div&gt;name&lt;/div&gt;&lt;div&gt;description&lt;/div&gt;" style="align=left;strokeColor=none;fillColor=none;spacingLeft=4;spacingRight=4;fontSize=12;verticalAlign=top;resizable=0;rotatable=0;part=1;html=1;whiteSpace=wrap;" parent="fs_kRZp0xW7BOfJZ6GTR-38" vertex="1">
          <mxGeometry y="50" width="90" height="60" as="geometry" />
        </mxCell>
        <mxCell id="fs_kRZp0xW7BOfJZ6GTR-40" value="uses" style="shape=associativeEntity;whiteSpace=wrap;html=1;align=center;" parent="1" vertex="1">
          <mxGeometry x="1720" y="251.25" width="80" height="50" as="geometry" />
        </mxCell>
        <mxCell id="fs_kRZp0xW7BOfJZ6GTR-41" value="quantity" style="whiteSpace=wrap;html=1;align=center;" parent="1" vertex="1">
          <mxGeometry x="1725" y="330" width="70" height="30" as="geometry" />
        </mxCell>
        <mxCell id="fs_kRZp0xW7BOfJZ6GTR-42" value="" style="endArrow=none;html=1;rounded=0;dashed=1;exitX=0.5;exitY=0;exitDx=0;exitDy=0;entryX=0.5;entryY=1;entryDx=0;entryDy=0;" parent="1" source="fs_kRZp0xW7BOfJZ6GTR-41" target="fs_kRZp0xW7BOfJZ6GTR-40" edge="1">
          <mxGeometry relative="1" as="geometry">
            <mxPoint x="560" y="790" as="sourcePoint" />
            <mxPoint x="960" y="350" as="targetPoint" />
          </mxGeometry>
        </mxCell>
        <mxCell id="fs_kRZp0xW7BOfJZ6GTR-44" value="has_exp" style="shape=rhombus;perimeter=rhombusPerimeter;whiteSpace=wrap;html=1;align=center;" parent="1" vertex="1">
          <mxGeometry x="705.25" y="5" width="80" height="40" as="geometry" />
        </mxCell>
        <mxCell id="fs_kRZp0xW7BOfJZ6GTR-45" value="ExperienceLevel" style="swimlane;childLayout=stackLayout;horizontal=1;startSize=40;horizontalStack=0;rounded=1;fontSize=14;fontStyle=0;strokeWidth=2;resizeParent=0;resizeLast=1;shadow=0;dashed=0;align=center;arcSize=4;whiteSpace=wrap;html=1;" parent="1" vertex="1">
          <mxGeometry x="540" y="-60" width="100" height="100" as="geometry" />
        </mxCell>
        <mxCell id="fs_kRZp0xW7BOfJZ6GTR-46" value="&lt;u&gt;exp_id&lt;/u&gt;&lt;div&gt;level_name&lt;br&gt;level_order&lt;/div&gt;" style="align=left;strokeColor=none;fillColor=none;spacingLeft=4;spacingRight=4;fontSize=12;verticalAlign=top;resizable=0;rotatable=0;part=1;html=1;whiteSpace=wrap;" parent="fs_kRZp0xW7BOfJZ6GTR-45" vertex="1">
          <mxGeometry y="40" width="100" height="60" as="geometry" />
        </mxCell>
        <mxCell id="fs_kRZp0xW7BOfJZ6GTR-56" value="" style="shape=link;html=1;rounded=0;entryX=0.5;entryY=1;entryDx=0;entryDy=0;exitX=0.5;exitY=0;exitDx=0;exitDy=0;" parent="1" source="fs_kRZp0xW7BOfJZ6GTR-25" target="fs_kRZp0xW7BOfJZ6GTR-4" edge="1">
          <mxGeometry relative="1" as="geometry">
            <mxPoint x="610" y="189.6" as="sourcePoint" />
            <mxPoint x="770" y="189.6" as="targetPoint" />
          </mxGeometry>
        </mxCell>
        <mxCell id="fs_kRZp0xW7BOfJZ6GTR-57" value="1" style="resizable=0;html=1;whiteSpace=wrap;align=right;verticalAlign=bottom;" parent="fs_kRZp0xW7BOfJZ6GTR-56" connectable="0" vertex="1">
          <mxGeometry x="1" relative="1" as="geometry">
            <mxPoint x="-10" y="20" as="offset" />
          </mxGeometry>
        </mxCell>
        <mxCell id="fs_kRZp0xW7BOfJZ6GTR-58" value="" style="shape=link;html=1;rounded=0;entryX=0.5;entryY=0;entryDx=0;entryDy=0;exitX=0.5;exitY=1;exitDx=0;exitDy=0;" parent="1" source="fs_kRZp0xW7BOfJZ6GTR-25" target="fs_kRZp0xW7BOfJZ6GTR-8" edge="1">
          <mxGeometry relative="1" as="geometry">
            <mxPoint x="500" y="160" as="sourcePoint" />
            <mxPoint x="660" y="160" as="targetPoint" />
          </mxGeometry>
        </mxCell>
        <mxCell id="fs_kRZp0xW7BOfJZ6GTR-59" value="N" style="resizable=0;html=1;whiteSpace=wrap;align=right;verticalAlign=bottom;" parent="fs_kRZp0xW7BOfJZ6GTR-58" connectable="0" vertex="1">
          <mxGeometry x="1" relative="1" as="geometry">
            <mxPoint x="-10" as="offset" />
          </mxGeometry>
        </mxCell>
        <mxCell id="fs_kRZp0xW7BOfJZ6GTR-60" value="" style="shape=link;html=1;rounded=0;entryX=0;entryY=0.5;entryDx=0;entryDy=0;exitX=0.5;exitY=0;exitDx=0;exitDy=0;edgeStyle=orthogonalEdgeStyle;" parent="1" source="fs_kRZp0xW7BOfJZ6GTR-26" target="fs_kRZp0xW7BOfJZ6GTR-2" edge="1">
          <mxGeometry relative="1" as="geometry">
            <mxPoint x="509.8" y="190" as="sourcePoint" />
            <mxPoint x="509.8" y="160" as="targetPoint" />
          </mxGeometry>
        </mxCell>
        <mxCell id="fs_kRZp0xW7BOfJZ6GTR-61" value="1" style="resizable=0;html=1;whiteSpace=wrap;align=right;verticalAlign=bottom;" parent="fs_kRZp0xW7BOfJZ6GTR-60" connectable="0" vertex="1">
          <mxGeometry x="1" relative="1" as="geometry">
            <mxPoint y="20" as="offset" />
          </mxGeometry>
        </mxCell>
        <mxCell id="fs_kRZp0xW7BOfJZ6GTR-62" value="" style="shape=link;html=1;rounded=0;entryX=0.5;entryY=0;entryDx=0;entryDy=0;exitX=0.499;exitY=0.981;exitDx=0;exitDy=0;exitPerimeter=0;" parent="1" source="fs_kRZp0xW7BOfJZ6GTR-26" target="fs_kRZp0xW7BOfJZ6GTR-6" edge="1">
          <mxGeometry relative="1" as="geometry">
            <mxPoint x="510" y="240" as="sourcePoint" />
            <mxPoint x="530" y="250" as="targetPoint" />
          </mxGeometry>
        </mxCell>
        <mxCell id="fs_kRZp0xW7BOfJZ6GTR-63" value="N" style="resizable=0;html=1;whiteSpace=wrap;align=right;verticalAlign=bottom;" parent="fs_kRZp0xW7BOfJZ6GTR-62" connectable="0" vertex="1">
          <mxGeometry x="1" relative="1" as="geometry" />
        </mxCell>
        <mxCell id="fs_kRZp0xW7BOfJZ6GTR-66" value="" style="shape=link;html=1;rounded=0;exitX=0.04;exitY=0.501;exitDx=0;exitDy=0;exitPerimeter=0;entryX=1;entryY=0.5;entryDx=0;entryDy=0;" parent="1" source="fs_kRZp0xW7BOfJZ6GTR-27" target="fs_kRZp0xW7BOfJZ6GTR-6" edge="1">
          <mxGeometry relative="1" as="geometry">
            <mxPoint x="520" y="239" as="sourcePoint" />
            <mxPoint x="1180" y="260" as="targetPoint" />
          </mxGeometry>
        </mxCell>
        <mxCell id="fs_kRZp0xW7BOfJZ6GTR-67" value="N" style="resizable=0;html=1;whiteSpace=wrap;align=right;verticalAlign=bottom;" parent="fs_kRZp0xW7BOfJZ6GTR-66" connectable="0" vertex="1">
          <mxGeometry x="1" relative="1" as="geometry">
            <mxPoint x="14" as="offset" />
          </mxGeometry>
        </mxCell>
        <mxCell id="fs_kRZp0xW7BOfJZ6GTR-68" value="" style="endArrow=none;html=1;rounded=0;exitX=1;exitY=0.5;exitDx=0;exitDy=0;entryX=0;entryY=0.054;entryDx=0;entryDy=0;entryPerimeter=0;" parent="1" source="fs_kRZp0xW7BOfJZ6GTR-27" target="fs_kRZp0xW7BOfJZ6GTR-9" edge="1">
          <mxGeometry relative="1" as="geometry">
            <mxPoint x="510" y="550" as="sourcePoint" />
            <mxPoint x="1540" y="260" as="targetPoint" />
          </mxGeometry>
        </mxCell>
        <mxCell id="fs_kRZp0xW7BOfJZ6GTR-69" value="1" style="resizable=0;html=1;whiteSpace=wrap;align=right;verticalAlign=bottom;" parent="fs_kRZp0xW7BOfJZ6GTR-68" connectable="0" vertex="1">
          <mxGeometry x="1" relative="1" as="geometry" />
        </mxCell>
        <mxCell id="fs_kRZp0xW7BOfJZ6GTR-70" value="" style="shape=link;html=1;rounded=0;exitX=0.5;exitY=0;exitDx=0;exitDy=0;entryX=0.5;entryY=1;entryDx=0;entryDy=0;" parent="1" source="fs_kRZp0xW7BOfJZ6GTR-29" target="fs_kRZp0xW7BOfJZ6GTR-7" edge="1">
          <mxGeometry relative="1" as="geometry">
            <mxPoint x="500" y="440" as="sourcePoint" />
            <mxPoint x="1180" y="310" as="targetPoint" />
          </mxGeometry>
        </mxCell>
        <mxCell id="fs_kRZp0xW7BOfJZ6GTR-71" value="1" style="resizable=0;html=1;whiteSpace=wrap;align=right;verticalAlign=bottom;" parent="fs_kRZp0xW7BOfJZ6GTR-70" connectable="0" vertex="1">
          <mxGeometry x="1" relative="1" as="geometry">
            <mxPoint x="13" y="17" as="offset" />
          </mxGeometry>
        </mxCell>
        <mxCell id="fs_kRZp0xW7BOfJZ6GTR-72" value="" style="shape=link;html=1;rounded=0;entryX=0;entryY=0;entryDx=0;entryDy=0;exitX=1;exitY=0.5;exitDx=0;exitDy=0;" parent="1" source="fs_kRZp0xW7BOfJZ6GTR-29" target="fs_kRZp0xW7BOfJZ6GTR-11" edge="1">
          <mxGeometry relative="1" as="geometry">
            <mxPoint x="1270.0000000000002" y="399" as="sourcePoint" />
            <mxPoint x="1270.0000000000002" y="430" as="targetPoint" />
          </mxGeometry>
        </mxCell>
        <mxCell id="fs_kRZp0xW7BOfJZ6GTR-73" value="N" style="resizable=0;html=1;whiteSpace=wrap;align=right;verticalAlign=bottom;direction=south;" parent="fs_kRZp0xW7BOfJZ6GTR-72" connectable="0" vertex="1">
          <mxGeometry x="1" relative="1" as="geometry">
            <mxPoint x="-5" as="offset" />
          </mxGeometry>
        </mxCell>
        <mxCell id="fs_kRZp0xW7BOfJZ6GTR-74" value="" style="endArrow=none;html=1;rounded=0;exitX=1;exitY=0.5;exitDx=0;exitDy=0;entryX=-0.002;entryY=0.068;entryDx=0;entryDy=0;entryPerimeter=0;" parent="1" source="fs_kRZp0xW7BOfJZ6GTR-30" target="fs_kRZp0xW7BOfJZ6GTR-15" edge="1">
          <mxGeometry relative="1" as="geometry">
            <mxPoint x="1360.0000000000002" y="410" as="sourcePoint" />
            <mxPoint x="1540" y="400" as="targetPoint" />
          </mxGeometry>
        </mxCell>
        <mxCell id="fs_kRZp0xW7BOfJZ6GTR-75" value="1" style="resizable=0;html=1;whiteSpace=wrap;align=right;verticalAlign=bottom;" parent="fs_kRZp0xW7BOfJZ6GTR-74" connectable="0" vertex="1">
          <mxGeometry x="1" relative="1" as="geometry" />
        </mxCell>
        <mxCell id="fs_kRZp0xW7BOfJZ6GTR-76" value="" style="shape=link;html=1;rounded=0;exitX=0.05;exitY=0.496;exitDx=0;exitDy=0;entryX=1;entryY=0;entryDx=0;entryDy=0;exitPerimeter=0;" parent="1" source="fs_kRZp0xW7BOfJZ6GTR-30" target="fs_kRZp0xW7BOfJZ6GTR-11" edge="1">
          <mxGeometry relative="1" as="geometry">
            <mxPoint x="1393.0000000000002" y="520" as="sourcePoint" />
            <mxPoint x="1360.0000000000002" y="490" as="targetPoint" />
          </mxGeometry>
        </mxCell>
        <mxCell id="fs_kRZp0xW7BOfJZ6GTR-77" value="N" style="resizable=0;html=1;whiteSpace=wrap;align=right;verticalAlign=bottom;" parent="fs_kRZp0xW7BOfJZ6GTR-76" connectable="0" vertex="1">
          <mxGeometry x="1" relative="1" as="geometry">
            <mxPoint x="14" as="offset" />
          </mxGeometry>
        </mxCell>
        <mxCell id="fs_kRZp0xW7BOfJZ6GTR-82" value="" style="shape=link;html=1;rounded=0;exitX=0;exitY=0.5;exitDx=0;exitDy=0;entryX=1;entryY=0.282;entryDx=0;entryDy=0;entryPerimeter=0;" parent="1" source="fs_kRZp0xW7BOfJZ6GTR-40" target="fs_kRZp0xW7BOfJZ6GTR-9" edge="1">
          <mxGeometry relative="1" as="geometry">
            <mxPoint x="1710" y="360" as="sourcePoint" />
            <mxPoint x="1690" y="316" as="targetPoint" />
          </mxGeometry>
        </mxCell>
        <mxCell id="fs_kRZp0xW7BOfJZ6GTR-83" value="N" style="resizable=0;html=1;whiteSpace=wrap;align=right;verticalAlign=bottom;" parent="fs_kRZp0xW7BOfJZ6GTR-82" connectable="0" vertex="1">
          <mxGeometry x="1" relative="1" as="geometry">
            <mxPoint x="13" as="offset" />
          </mxGeometry>
        </mxCell>
        <mxCell id="fs_kRZp0xW7BOfJZ6GTR-84" value="" style="shape=link;html=1;rounded=0;entryX=0.5;entryY=0;entryDx=0;entryDy=0;exitX=0.5;exitY=1;exitDx=0;exitDy=0;" parent="1" source="fs_kRZp0xW7BOfJZ6GTR-39" target="fs_kRZp0xW7BOfJZ6GTR-40" edge="1">
          <mxGeometry relative="1" as="geometry">
            <mxPoint x="720" y="420" as="sourcePoint" />
            <mxPoint x="840" y="450" as="targetPoint" />
          </mxGeometry>
        </mxCell>
        <mxCell id="fs_kRZp0xW7BOfJZ6GTR-85" value="M" style="resizable=0;html=1;whiteSpace=wrap;align=left;verticalAlign=bottom;" parent="fs_kRZp0xW7BOfJZ6GTR-84" connectable="0" vertex="1">
          <mxGeometry x="-1" relative="1" as="geometry">
            <mxPoint x="-1" as="offset" />
          </mxGeometry>
        </mxCell>
        <mxCell id="fs_kRZp0xW7BOfJZ6GTR-87" value="" style="endArrow=none;html=1;rounded=0;exitX=0.5;exitY=0;exitDx=0;exitDy=0;entryX=0.5;entryY=1;entryDx=0;entryDy=0;" parent="1" source="fs_kRZp0xW7BOfJZ6GTR-28" target="fs_kRZp0xW7BOfJZ6GTR-13" edge="1">
          <mxGeometry relative="1" as="geometry">
            <mxPoint x="460" y="230" as="sourcePoint" />
            <mxPoint x="300" y="330" as="targetPoint" />
          </mxGeometry>
        </mxCell>
        <mxCell id="fs_kRZp0xW7BOfJZ6GTR-88" value="N" style="resizable=0;html=1;whiteSpace=wrap;align=right;verticalAlign=bottom;" parent="fs_kRZp0xW7BOfJZ6GTR-87" connectable="0" vertex="1">
          <mxGeometry x="1" relative="1" as="geometry">
            <mxPoint x="14" y="18" as="offset" />
          </mxGeometry>
        </mxCell>
        <mxCell id="fs_kRZp0xW7BOfJZ6GTR-89" value="" style="shape=link;html=1;rounded=0;entryX=1;entryY=0.5;entryDx=0;entryDy=0;exitX=0;exitY=0;exitDx=0;exitDy=0;" parent="1" source="fs_kRZp0xW7BOfJZ6GTR-7" target="fs_kRZp0xW7BOfJZ6GTR-28" edge="1">
          <mxGeometry relative="1" as="geometry">
            <mxPoint x="440" y="320" as="sourcePoint" />
            <mxPoint x="425" y="409.77" as="targetPoint" />
          </mxGeometry>
        </mxCell>
        <mxCell id="fs_kRZp0xW7BOfJZ6GTR-90" value="M" style="resizable=0;html=1;whiteSpace=wrap;align=left;verticalAlign=bottom;" parent="fs_kRZp0xW7BOfJZ6GTR-89" connectable="0" vertex="1">
          <mxGeometry x="-1" relative="1" as="geometry">
            <mxPoint x="-15" as="offset" />
          </mxGeometry>
        </mxCell>
        <mxCell id="fs_kRZp0xW7BOfJZ6GTR-97" value="" style="shape=link;html=1;rounded=0;exitX=1;exitY=0.5;exitDx=0;exitDy=0;entryX=0;entryY=0.167;entryDx=0;entryDy=0;entryPerimeter=0;" parent="1" source="fs_kRZp0xW7BOfJZ6GTR-44" target="fs_kRZp0xW7BOfJZ6GTR-12" edge="1">
          <mxGeometry relative="1" as="geometry">
            <mxPoint x="190" y="240" as="sourcePoint" />
            <mxPoint x="830" y="25" as="targetPoint" />
          </mxGeometry>
        </mxCell>
        <mxCell id="fs_kRZp0xW7BOfJZ6GTR-98" value="N" style="resizable=0;html=1;whiteSpace=wrap;align=right;verticalAlign=bottom;" parent="fs_kRZp0xW7BOfJZ6GTR-97" connectable="0" vertex="1">
          <mxGeometry x="1" relative="1" as="geometry">
            <mxPoint x="-2" as="offset" />
          </mxGeometry>
        </mxCell>
        <mxCell id="fs_kRZp0xW7BOfJZ6GTR-99" value="" style="endArrow=none;html=1;rounded=0;exitX=0;exitY=0.5;exitDx=0;exitDy=0;entryX=1;entryY=0.75;entryDx=0;entryDy=0;" parent="1" source="fs_kRZp0xW7BOfJZ6GTR-44" target="fs_kRZp0xW7BOfJZ6GTR-46" edge="1">
          <mxGeometry relative="1" as="geometry">
            <mxPoint x="300" y="50" as="sourcePoint" />
            <mxPoint x="660" y="25" as="targetPoint" />
          </mxGeometry>
        </mxCell>
        <mxCell id="fs_kRZp0xW7BOfJZ6GTR-100" value="1" style="resizable=0;html=1;whiteSpace=wrap;align=right;verticalAlign=bottom;" parent="fs_kRZp0xW7BOfJZ6GTR-99" connectable="0" vertex="1">
          <mxGeometry x="1" relative="1" as="geometry">
            <mxPoint x="10" as="offset" />
          </mxGeometry>
        </mxCell>
        <mxCell id="fs_kRZp0xW7BOfJZ6GTR-101" value="play" style="shape=associativeEntity;whiteSpace=wrap;html=1;align=center;" parent="1" vertex="1">
          <mxGeometry x="1410.0000000000002" y="505" width="80" height="50" as="geometry" />
        </mxCell>
        <mxCell id="fs_kRZp0xW7BOfJZ6GTR-102" value="Genre" style="swimlane;childLayout=stackLayout;horizontal=1;startSize=40;horizontalStack=0;rounded=1;fontSize=14;fontStyle=0;strokeWidth=2;resizeParent=0;resizeLast=1;shadow=0;dashed=0;align=center;arcSize=4;whiteSpace=wrap;html=1;" parent="1" vertex="1">
          <mxGeometry x="1400" y="675" width="100" height="105" as="geometry" />
        </mxCell>
        <mxCell id="fs_kRZp0xW7BOfJZ6GTR-103" value="&lt;u&gt;genre_id&lt;/u&gt;&lt;div&gt;name&lt;/div&gt;&lt;div&gt;parent_id&lt;/div&gt;" style="align=left;strokeColor=none;fillColor=none;spacingLeft=4;spacingRight=4;fontSize=12;verticalAlign=top;resizable=0;rotatable=0;part=1;html=1;whiteSpace=wrap;" parent="fs_kRZp0xW7BOfJZ6GTR-102" vertex="1">
          <mxGeometry y="40" width="100" height="65" as="geometry" />
        </mxCell>
        <mxCell id="fs_kRZp0xW7BOfJZ6GTR-106" value="" style="shape=link;html=1;rounded=0;exitX=0.5;exitY=0;exitDx=0;exitDy=0;edgeStyle=orthogonalEdgeStyle;entryX=0;entryY=0.75;entryDx=0;entryDy=0;" parent="1" source="fs_kRZp0xW7BOfJZ6GTR-101" target="fs_kRZp0xW7BOfJZ6GTR-15" edge="1">
          <mxGeometry relative="1" as="geometry">
            <mxPoint x="1380.0000000000002" y="525" as="sourcePoint" />
            <mxPoint x="1400.0000000000002" y="515" as="targetPoint" />
          </mxGeometry>
        </mxCell>
        <mxCell id="fs_kRZp0xW7BOfJZ6GTR-107" value="N" style="resizable=0;html=1;whiteSpace=wrap;align=right;verticalAlign=bottom;" parent="fs_kRZp0xW7BOfJZ6GTR-106" connectable="0" vertex="1">
          <mxGeometry x="1" relative="1" as="geometry">
            <mxPoint x="-2" y="-2" as="offset" />
          </mxGeometry>
        </mxCell>
        <mxCell id="fs_kRZp0xW7BOfJZ6GTR-108" value="" style="endArrow=none;html=1;rounded=0;entryX=0.5;entryY=1;entryDx=0;entryDy=0;exitX=0.5;exitY=0;exitDx=0;exitDy=0;" parent="1" source="fs_kRZp0xW7BOfJZ6GTR-102" target="fs_kRZp0xW7BOfJZ6GTR-101" edge="1">
          <mxGeometry relative="1" as="geometry">
            <mxPoint x="1570.0000000000002" y="485" as="sourcePoint" />
            <mxPoint x="1540.0000000000002" y="525" as="targetPoint" />
          </mxGeometry>
        </mxCell>
        <mxCell id="fs_kRZp0xW7BOfJZ6GTR-109" value="M" style="resizable=0;html=1;whiteSpace=wrap;align=left;verticalAlign=bottom;" parent="fs_kRZp0xW7BOfJZ6GTR-108" connectable="0" vertex="1">
          <mxGeometry x="-1" relative="1" as="geometry">
            <mxPoint as="offset" />
          </mxGeometry>
        </mxCell>
        <mxCell id="fs_kRZp0xW7BOfJZ6GTR-112" value="subgenre_of" style="shape=rhombus;perimeter=rhombusPerimeter;whiteSpace=wrap;html=1;align=center;" parent="1" vertex="1">
          <mxGeometry x="1400" y="805" width="100" height="60" as="geometry" />
        </mxCell>
        <mxCell id="fs_kRZp0xW7BOfJZ6GTR-114" value="parent" style="endArrow=none;html=1;rounded=0;entryX=0;entryY=0.75;entryDx=0;entryDy=0;edgeStyle=orthogonalEdgeStyle;exitX=0;exitY=0.5;exitDx=0;exitDy=0;horizontal=0;spacingTop=2;spacing=2;spacingLeft=-16;fontSize=12;" parent="1" source="fs_kRZp0xW7BOfJZ6GTR-112" target="fs_kRZp0xW7BOfJZ6GTR-103" edge="1">
          <mxGeometry relative="1" as="geometry">
            <mxPoint x="1359.92" y="875" as="sourcePoint" />
            <mxPoint x="1359.92" y="805" as="targetPoint" />
            <Array as="points">
              <mxPoint x="1370" y="835" />
              <mxPoint x="1370" y="765" />
              <mxPoint x="1400" y="765" />
            </Array>
          </mxGeometry>
        </mxCell>
        <mxCell id="fs_kRZp0xW7BOfJZ6GTR-115" value="1" style="resizable=0;html=1;whiteSpace=wrap;align=right;verticalAlign=bottom;" parent="fs_kRZp0xW7BOfJZ6GTR-114" connectable="0" vertex="1">
          <mxGeometry x="1" relative="1" as="geometry">
            <mxPoint x="-2" as="offset" />
          </mxGeometry>
        </mxCell>
        <mxCell id="fs_kRZp0xW7BOfJZ6GTR-116" value="sub_genre" style="endArrow=none;html=1;rounded=0;entryX=1;entryY=0.75;entryDx=0;entryDy=0;edgeStyle=orthogonalEdgeStyle;exitX=1;exitY=0.5;exitDx=0;exitDy=0;horizontal=1;spacingRight=0;spacingLeft=15;textDirection=vertical-lr;spacingTop=2;fontSize=12;" parent="1" source="fs_kRZp0xW7BOfJZ6GTR-112" target="fs_kRZp0xW7BOfJZ6GTR-103" edge="1">
          <mxGeometry relative="1" as="geometry">
            <mxPoint x="1539.92" y="793" as="sourcePoint" />
            <mxPoint x="1649.92" y="825" as="targetPoint" />
            <Array as="points">
              <mxPoint x="1530" y="835" />
              <mxPoint x="1530" y="765" />
              <mxPoint x="1500" y="765" />
            </Array>
          </mxGeometry>
        </mxCell>
        <mxCell id="fs_kRZp0xW7BOfJZ6GTR-117" value="N" style="resizable=0;html=1;whiteSpace=wrap;align=right;verticalAlign=bottom;" parent="fs_kRZp0xW7BOfJZ6GTR-116" connectable="0" vertex="1">
          <mxGeometry x="1" relative="1" as="geometry">
            <mxPoint x="13" as="offset" />
          </mxGeometry>
        </mxCell>
        <mxCell id="fs_kRZp0xW7BOfJZ6GTR-118" value="access" style="shape=rhombus;perimeter=rhombusPerimeter;whiteSpace=wrap;html=1;align=center;" parent="1" vertex="1">
          <mxGeometry x="705.25" y="260" width="80" height="40" as="geometry" />
        </mxCell>
        <mxCell id="fs_kRZp0xW7BOfJZ6GTR-119" value="Ticket" style="swimlane;childLayout=stackLayout;horizontal=1;startSize=40;horizontalStack=0;rounded=1;fontSize=14;fontStyle=0;strokeWidth=2;resizeParent=0;resizeLast=1;shadow=0;dashed=0;align=center;arcSize=4;whiteSpace=wrap;html=1;" parent="1" vertex="1">
          <mxGeometry x="685.25" y="330" width="120" height="150" as="geometry" />
        </mxCell>
        <mxCell id="fs_kRZp0xW7BOfJZ6GTR-120" value="&lt;u&gt;ticket_id&lt;/u&gt;&lt;div&gt;purchase_timestamp&lt;/div&gt;&lt;div&gt;price&lt;/div&gt;&lt;div&gt;ean_code&lt;/div&gt;&lt;div&gt;is_activated&lt;/div&gt;" style="align=left;strokeColor=none;fillColor=none;spacingLeft=4;spacingRight=4;fontSize=12;verticalAlign=top;resizable=0;rotatable=0;part=1;html=1;whiteSpace=wrap;" parent="fs_kRZp0xW7BOfJZ6GTR-119" vertex="1">
          <mxGeometry y="40" width="120" height="110" as="geometry" />
        </mxCell>
        <mxCell id="fs_kRZp0xW7BOfJZ6GTR-121" value="" style="endArrow=none;html=1;rounded=0;exitX=1;exitY=0.5;exitDx=0;exitDy=0;entryX=0;entryY=0.5;entryDx=0;entryDy=0;" parent="1" source="fs_kRZp0xW7BOfJZ6GTR-118" target="fs_kRZp0xW7BOfJZ6GTR-7" edge="1">
          <mxGeometry relative="1" as="geometry">
            <mxPoint x="1530" y="352.5" as="sourcePoint" />
            <mxPoint x="1020" y="280" as="targetPoint" />
          </mxGeometry>
        </mxCell>
        <mxCell id="fs_kRZp0xW7BOfJZ6GTR-122" value="1" style="resizable=0;html=1;whiteSpace=wrap;align=right;verticalAlign=bottom;" parent="fs_kRZp0xW7BOfJZ6GTR-121" connectable="0" vertex="1">
          <mxGeometry x="1" relative="1" as="geometry" />
        </mxCell>
        <mxCell id="fs_kRZp0xW7BOfJZ6GTR-123" value="" style="shape=link;html=1;rounded=0;entryX=0.5;entryY=0;entryDx=0;entryDy=0;exitX=0.5;exitY=1;exitDx=0;exitDy=0;" parent="1" source="fs_kRZp0xW7BOfJZ6GTR-118" target="fs_kRZp0xW7BOfJZ6GTR-119" edge="1">
          <mxGeometry relative="1" as="geometry">
            <mxPoint x="2259.87" y="612.5" as="sourcePoint" />
            <mxPoint x="2489.87" y="722.5" as="targetPoint" />
          </mxGeometry>
        </mxCell>
        <mxCell id="fs_kRZp0xW7BOfJZ6GTR-124" value="N" style="resizable=0;html=1;whiteSpace=wrap;align=right;verticalAlign=bottom;" parent="fs_kRZp0xW7BOfJZ6GTR-123" connectable="0" vertex="1">
          <mxGeometry x="1" relative="1" as="geometry">
            <mxPoint x="14" as="offset" />
          </mxGeometry>
        </mxCell>
        <mxCell id="fs_kRZp0xW7BOfJZ6GTR-125" value="buys" style="shape=rhombus;perimeter=rhombusPerimeter;whiteSpace=wrap;html=1;align=center;" parent="1" vertex="1">
          <mxGeometry x="705.2499999999999" y="515" width="80" height="40" as="geometry" />
        </mxCell>
        <mxCell id="fs_kRZp0xW7BOfJZ6GTR-126" value="" style="shape=link;html=1;rounded=0;exitX=0.5;exitY=0;exitDx=0;exitDy=0;entryX=0.5;entryY=1;entryDx=0;entryDy=0;" parent="1" source="fs_kRZp0xW7BOfJZ6GTR-125" target="fs_kRZp0xW7BOfJZ6GTR-120" edge="1">
          <mxGeometry relative="1" as="geometry">
            <mxPoint x="640" y="970" as="sourcePoint" />
            <mxPoint x="276" y="630" as="targetPoint" />
          </mxGeometry>
        </mxCell>
        <mxCell id="fs_kRZp0xW7BOfJZ6GTR-127" value="N" style="resizable=0;html=1;whiteSpace=wrap;align=right;verticalAlign=bottom;" parent="fs_kRZp0xW7BOfJZ6GTR-126" connectable="0" vertex="1">
          <mxGeometry x="1" relative="1" as="geometry">
            <mxPoint x="15" y="20" as="offset" />
          </mxGeometry>
        </mxCell>
        <mxCell id="fs_kRZp0xW7BOfJZ6GTR-128" value="Visitor" style="swimlane;childLayout=stackLayout;horizontal=1;startSize=35;horizontalStack=0;rounded=1;fontSize=14;fontStyle=0;strokeWidth=2;resizeParent=0;resizeLast=1;shadow=0;dashed=0;align=center;arcSize=4;whiteSpace=wrap;html=1;" parent="1" vertex="1">
          <mxGeometry x="692.1200000000001" y="585" width="106.25" height="150" as="geometry" />
        </mxCell>
        <mxCell id="fs_kRZp0xW7BOfJZ6GTR-129" value="&lt;u&gt;visitor_id&lt;/u&gt;&lt;div&gt;first_name&lt;/div&gt;&lt;div&gt;last_name&lt;/div&gt;&lt;div&gt;birth_date&lt;/div&gt;&lt;div&gt;age()&lt;/div&gt;&lt;div&gt;email&lt;/div&gt;&lt;div&gt;phone&lt;/div&gt;" style="align=left;strokeColor=none;fillColor=none;spacingLeft=4;spacingRight=4;fontSize=12;verticalAlign=top;resizable=0;rotatable=0;part=1;html=1;whiteSpace=wrap;" parent="fs_kRZp0xW7BOfJZ6GTR-128" vertex="1">
          <mxGeometry y="35" width="106.25" height="115" as="geometry" />
        </mxCell>
        <mxCell id="fs_kRZp0xW7BOfJZ6GTR-130" value="" style="endArrow=none;html=1;rounded=0;exitX=0.5;exitY=1;exitDx=0;exitDy=0;entryX=0.5;entryY=0;entryDx=0;entryDy=0;" parent="1" source="fs_kRZp0xW7BOfJZ6GTR-125" target="fs_kRZp0xW7BOfJZ6GTR-128" edge="1">
          <mxGeometry relative="1" as="geometry">
            <mxPoint x="1804.37" y="900" as="sourcePoint" />
            <mxPoint x="1294.37" y="570" as="targetPoint" />
          </mxGeometry>
        </mxCell>
        <mxCell id="fs_kRZp0xW7BOfJZ6GTR-131" value="1" style="resizable=0;html=1;whiteSpace=wrap;align=right;verticalAlign=bottom;" parent="fs_kRZp0xW7BOfJZ6GTR-130" connectable="0" vertex="1">
          <mxGeometry x="1" relative="1" as="geometry">
            <mxPoint x="15" as="offset" />
          </mxGeometry>
        </mxCell>
        <mxCell id="fs_kRZp0xW7BOfJZ6GTR-132" value="by" style="shape=rhombus;perimeter=rhombusPerimeter;whiteSpace=wrap;html=1;align=center;" parent="1" vertex="1">
          <mxGeometry x="355" y="380" width="80" height="40" as="geometry" />
        </mxCell>
        <mxCell id="fs_kRZp0xW7BOfJZ6GTR-133" value="Rating" style="swimlane;childLayout=stackLayout;horizontal=1;startSize=35;horizontalStack=0;rounded=1;fontSize=14;fontStyle=0;strokeWidth=2;resizeParent=0;resizeLast=1;shadow=0;dashed=0;align=center;arcSize=4;whiteSpace=wrap;html=1;" parent="1" vertex="1">
          <mxGeometry x="335" y="155" width="130" height="150" as="geometry" />
        </mxCell>
        <mxCell id="fs_kRZp0xW7BOfJZ6GTR-134" value="&lt;u&gt;rating_id&lt;/u&gt;&lt;div&gt;score_performance&lt;/div&gt;&lt;div&gt;score_audio_visual&lt;/div&gt;&lt;div&gt;score_stage_presence&lt;/div&gt;&lt;div&gt;score_organization&lt;/div&gt;&lt;div&gt;score_overall&lt;/div&gt;" style="align=left;strokeColor=none;fillColor=none;spacingLeft=4;spacingRight=4;fontSize=12;verticalAlign=top;resizable=0;rotatable=0;part=1;html=1;whiteSpace=wrap;" parent="fs_kRZp0xW7BOfJZ6GTR-133" vertex="1">
          <mxGeometry y="35" width="130" height="115" as="geometry" />
        </mxCell>
        <mxCell id="fs_kRZp0xW7BOfJZ6GTR-135" value="" style="shape=link;html=1;rounded=0;exitX=0.5;exitY=0;exitDx=0;exitDy=0;entryX=0.462;entryY=1.004;entryDx=0;entryDy=0;entryPerimeter=0;" parent="1" source="fs_kRZp0xW7BOfJZ6GTR-132" target="fs_kRZp0xW7BOfJZ6GTR-134" edge="1">
          <mxGeometry relative="1" as="geometry">
            <mxPoint x="275" y="330" as="sourcePoint" />
            <mxPoint x="395" y="320" as="targetPoint" />
          </mxGeometry>
        </mxCell>
        <mxCell id="fs_kRZp0xW7BOfJZ6GTR-136" value="1" style="resizable=0;html=1;whiteSpace=wrap;align=right;verticalAlign=bottom;" parent="fs_kRZp0xW7BOfJZ6GTR-135" connectable="0" vertex="1">
          <mxGeometry x="1" relative="1" as="geometry">
            <mxPoint x="-4" y="18" as="offset" />
          </mxGeometry>
        </mxCell>
        <mxCell id="fs_kRZp0xW7BOfJZ6GTR-137" value="" style="endArrow=none;html=1;rounded=0;exitX=1;exitY=0.5;exitDx=0;exitDy=0;entryX=-0.001;entryY=0.274;entryDx=0;entryDy=0;entryPerimeter=0;" parent="1" source="fs_kRZp0xW7BOfJZ6GTR-132" target="fs_kRZp0xW7BOfJZ6GTR-120" edge="1">
          <mxGeometry relative="1" as="geometry">
            <mxPoint x="365" y="732.38" as="sourcePoint" />
            <mxPoint x="300" y="510" as="targetPoint" />
          </mxGeometry>
        </mxCell>
        <mxCell id="fs_kRZp0xW7BOfJZ6GTR-138" value="1" style="resizable=0;html=1;whiteSpace=wrap;align=right;verticalAlign=bottom;" parent="fs_kRZp0xW7BOfJZ6GTR-137" connectable="0" vertex="1">
          <mxGeometry x="1" relative="1" as="geometry">
            <mxPoint as="offset" />
          </mxGeometry>
        </mxCell>
        <mxCell id="fs_kRZp0xW7BOfJZ6GTR-139" value="offers" style="shape=rhombus;perimeter=rhombusPerimeter;whiteSpace=wrap;html=1;align=center;" parent="1" vertex="1">
          <mxGeometry x="880" y="585" width="80" height="40" as="geometry" />
        </mxCell>
        <mxCell id="fs_kRZp0xW7BOfJZ6GTR-140" value="ResaleOffer" style="swimlane;childLayout=stackLayout;horizontal=1;startSize=40;horizontalStack=0;rounded=1;fontSize=14;fontStyle=0;strokeWidth=2;resizeParent=0;resizeLast=1;shadow=0;dashed=0;align=center;arcSize=4;whiteSpace=wrap;html=1;" parent="1" vertex="1">
          <mxGeometry x="1049.37" y="582.5" width="108.75" height="100" as="geometry" />
        </mxCell>
        <mxCell id="fs_kRZp0xW7BOfJZ6GTR-141" value="&lt;u&gt;offer_id&lt;/u&gt;&lt;div&gt;offer_timestamp&lt;/div&gt;&lt;div&gt;is_available&lt;/div&gt;" style="align=left;strokeColor=none;fillColor=none;spacingLeft=4;spacingRight=4;fontSize=12;verticalAlign=top;resizable=0;rotatable=0;part=1;html=1;whiteSpace=wrap;" parent="fs_kRZp0xW7BOfJZ6GTR-140" vertex="1">
          <mxGeometry y="40" width="108.75" height="60" as="geometry" />
        </mxCell>
        <mxCell id="fs_kRZp0xW7BOfJZ6GTR-142" value="ResaleRequest" style="swimlane;childLayout=stackLayout;horizontal=1;startSize=40;horizontalStack=0;rounded=1;fontSize=14;fontStyle=0;strokeWidth=2;resizeParent=0;resizeLast=1;shadow=0;dashed=0;align=center;arcSize=4;whiteSpace=wrap;html=1;" parent="1" vertex="1">
          <mxGeometry x="340.6200000000001" y="582.5" width="108.75" height="100" as="geometry" />
        </mxCell>
        <mxCell id="fs_kRZp0xW7BOfJZ6GTR-143" value="&lt;u&gt;request_id&lt;/u&gt;&lt;div&gt;request_timestamp&lt;/div&gt;&lt;div&gt;is_fulfilled&lt;/div&gt;" style="align=left;strokeColor=none;fillColor=none;spacingLeft=4;spacingRight=4;fontSize=12;verticalAlign=top;resizable=0;rotatable=0;part=1;html=1;whiteSpace=wrap;" parent="fs_kRZp0xW7BOfJZ6GTR-142" vertex="1">
          <mxGeometry y="40" width="108.75" height="60" as="geometry" />
        </mxCell>
        <mxCell id="fs_kRZp0xW7BOfJZ6GTR-144" value="made_by" style="shape=rhombus;perimeter=rhombusPerimeter;whiteSpace=wrap;html=1;align=center;" parent="1" vertex="1">
          <mxGeometry x="530" y="602.5" width="80" height="40" as="geometry" />
        </mxCell>
        <mxCell id="fs_kRZp0xW7BOfJZ6GTR-145" value="" style="shape=link;html=1;rounded=0;exitX=1;exitY=0.5;exitDx=0;exitDy=0;entryX=-0.001;entryY=0.222;entryDx=0;entryDy=0;entryPerimeter=0;" parent="1" source="fs_kRZp0xW7BOfJZ6GTR-139" target="fs_kRZp0xW7BOfJZ6GTR-140" edge="1">
          <mxGeometry relative="1" as="geometry">
            <mxPoint x="250" y="920" as="sourcePoint" />
            <mxPoint x="1000" y="610" as="targetPoint" />
          </mxGeometry>
        </mxCell>
        <mxCell id="fs_kRZp0xW7BOfJZ6GTR-146" value="1" style="resizable=0;html=1;whiteSpace=wrap;align=right;verticalAlign=bottom;" parent="fs_kRZp0xW7BOfJZ6GTR-145" connectable="0" vertex="1">
          <mxGeometry x="1" relative="1" as="geometry" />
        </mxCell>
        <mxCell id="fs_kRZp0xW7BOfJZ6GTR-147" value="" style="endArrow=none;html=1;rounded=0;entryX=1;entryY=0.75;entryDx=0;entryDy=0;exitX=0;exitY=0.5;exitDx=0;exitDy=0;edgeStyle=orthogonalEdgeStyle;" parent="1" source="fs_kRZp0xW7BOfJZ6GTR-139" target="fs_kRZp0xW7BOfJZ6GTR-120" edge="1">
          <mxGeometry relative="1" as="geometry">
            <mxPoint x="250" y="920" as="sourcePoint" />
            <mxPoint x="380" y="620" as="targetPoint" />
          </mxGeometry>
        </mxCell>
        <mxCell id="fs_kRZp0xW7BOfJZ6GTR-148" value="1" style="resizable=0;html=1;whiteSpace=wrap;align=right;verticalAlign=bottom;" parent="fs_kRZp0xW7BOfJZ6GTR-147" connectable="0" vertex="1">
          <mxGeometry x="1" relative="1" as="geometry">
            <mxPoint y="20" as="offset" />
          </mxGeometry>
        </mxCell>
        <mxCell id="fs_kRZp0xW7BOfJZ6GTR-149" value="" style="endArrow=none;html=1;rounded=0;exitX=1;exitY=0.5;exitDx=0;exitDy=0;entryX=-0.001;entryY=0.023;entryDx=0;entryDy=0;entryPerimeter=0;" parent="1" source="fs_kRZp0xW7BOfJZ6GTR-144" target="fs_kRZp0xW7BOfJZ6GTR-129" edge="1">
          <mxGeometry relative="1" as="geometry">
            <mxPoint x="1204.37" y="760" as="sourcePoint" />
            <mxPoint x="650" y="610" as="targetPoint" />
          </mxGeometry>
        </mxCell>
        <mxCell id="fs_kRZp0xW7BOfJZ6GTR-150" value="1" style="resizable=0;html=1;whiteSpace=wrap;align=right;verticalAlign=bottom;" parent="fs_kRZp0xW7BOfJZ6GTR-149" connectable="0" vertex="1">
          <mxGeometry x="1" relative="1" as="geometry">
            <mxPoint as="offset" />
          </mxGeometry>
        </mxCell>
        <mxCell id="fs_kRZp0xW7BOfJZ6GTR-151" value="" style="shape=link;html=1;rounded=0;exitX=0;exitY=0.5;exitDx=0;exitDy=0;entryX=1;entryY=0;entryDx=0;entryDy=0;" parent="1" source="fs_kRZp0xW7BOfJZ6GTR-144" target="fs_kRZp0xW7BOfJZ6GTR-143" edge="1">
          <mxGeometry relative="1" as="geometry">
            <mxPoint x="1204.37" y="800" as="sourcePoint" />
            <mxPoint x="40" y="950" as="targetPoint" />
          </mxGeometry>
        </mxCell>
        <mxCell id="fs_kRZp0xW7BOfJZ6GTR-152" value="N" style="resizable=0;html=1;whiteSpace=wrap;align=right;verticalAlign=bottom;" parent="fs_kRZp0xW7BOfJZ6GTR-151" connectable="0" vertex="1">
          <mxGeometry x="1" relative="1" as="geometry">
            <mxPoint x="15" as="offset" />
          </mxGeometry>
        </mxCell>
        <mxCell id="fs_kRZp0xW7BOfJZ6GTR-153" value="ResaleTransaction" style="swimlane;childLayout=stackLayout;horizontal=1;startSize=40;horizontalStack=0;rounded=1;fontSize=14;fontStyle=0;strokeWidth=2;resizeParent=0;resizeLast=1;shadow=0;dashed=0;align=center;arcSize=4;whiteSpace=wrap;html=1;" parent="1" vertex="1">
          <mxGeometry x="680.8699999999999" y="810" width="128.75" height="100" as="geometry" />
        </mxCell>
        <mxCell id="fs_kRZp0xW7BOfJZ6GTR-154" value="&lt;u&gt;transaction_id&lt;/u&gt;&lt;div&gt;transaction_timestamp&lt;/div&gt;&lt;div&gt;is_complete&lt;/div&gt;" style="align=left;strokeColor=none;fillColor=none;spacingLeft=4;spacingRight=4;fontSize=12;verticalAlign=top;resizable=0;rotatable=0;part=1;html=1;whiteSpace=wrap;" parent="fs_kRZp0xW7BOfJZ6GTR-153" vertex="1">
          <mxGeometry y="40" width="128.75" height="60" as="geometry" />
        </mxCell>
        <mxCell id="fs_kRZp0xW7BOfJZ6GTR-157" value="matched" style="shape=rhombus;perimeter=rhombusPerimeter;whiteSpace=wrap;html=1;align=center;" parent="1" vertex="1">
          <mxGeometry x="1060" y="870" width="80" height="40" as="geometry" />
        </mxCell>
        <mxCell id="fs_kRZp0xW7BOfJZ6GTR-158" value="fulfilled" style="shape=rhombus;perimeter=rhombusPerimeter;whiteSpace=wrap;html=1;align=center;" parent="1" vertex="1">
          <mxGeometry x="354.99999999999994" y="870" width="80" height="40" as="geometry" />
        </mxCell>
        <mxCell id="fs_kRZp0xW7BOfJZ6GTR-159" value="" style="shape=link;html=1;rounded=0;exitX=0;exitY=0.5;exitDx=0;exitDy=0;entryX=1.001;entryY=0.669;entryDx=0;entryDy=0;entryPerimeter=0;" parent="1" source="fs_kRZp0xW7BOfJZ6GTR-157" target="fs_kRZp0xW7BOfJZ6GTR-154" edge="1">
          <mxGeometry relative="1" as="geometry">
            <mxPoint x="1070" y="790" as="sourcePoint" />
            <mxPoint x="850" y="890" as="targetPoint" />
          </mxGeometry>
        </mxCell>
        <mxCell id="fs_kRZp0xW7BOfJZ6GTR-160" value="1" style="resizable=0;html=1;whiteSpace=wrap;align=right;verticalAlign=bottom;" parent="fs_kRZp0xW7BOfJZ6GTR-159" connectable="0" vertex="1">
          <mxGeometry x="1" relative="1" as="geometry">
            <mxPoint x="9" as="offset" />
          </mxGeometry>
        </mxCell>
        <mxCell id="fs_kRZp0xW7BOfJZ6GTR-161" value="" style="shape=link;html=1;rounded=0;exitX=1;exitY=0.5;exitDx=0;exitDy=0;entryX=-0.004;entryY=0.666;entryDx=0;entryDy=0;entryPerimeter=0;" parent="1" source="fs_kRZp0xW7BOfJZ6GTR-158" edge="1" target="fs_kRZp0xW7BOfJZ6GTR-154">
          <mxGeometry relative="1" as="geometry">
            <mxPoint x="2035.62" y="800" as="sourcePoint" />
            <mxPoint x="660" y="890" as="targetPoint" />
          </mxGeometry>
        </mxCell>
        <mxCell id="fs_kRZp0xW7BOfJZ6GTR-162" value="1" style="resizable=0;html=1;whiteSpace=wrap;align=right;verticalAlign=bottom;" parent="fs_kRZp0xW7BOfJZ6GTR-161" connectable="0" vertex="1">
          <mxGeometry x="1" relative="1" as="geometry" />
        </mxCell>
        <mxCell id="fs_kRZp0xW7BOfJZ6GTR-163" value="" style="shape=link;html=1;rounded=0;exitX=0.5;exitY=0;exitDx=0;exitDy=0;entryX=0.5;entryY=1;entryDx=0;entryDy=0;" parent="1" source="fs_kRZp0xW7BOfJZ6GTR-158" target="fs_kRZp0xW7BOfJZ6GTR-143" edge="1">
          <mxGeometry relative="1" as="geometry">
            <mxPoint x="634" y="1029.67" as="sourcePoint" />
            <mxPoint x="140" y="1050" as="targetPoint" />
          </mxGeometry>
        </mxCell>
        <mxCell id="fs_kRZp0xW7BOfJZ6GTR-164" value="N" style="resizable=0;html=1;whiteSpace=wrap;align=right;verticalAlign=bottom;" parent="fs_kRZp0xW7BOfJZ6GTR-163" connectable="0" vertex="1">
          <mxGeometry x="1" relative="1" as="geometry">
            <mxPoint x="15" y="19" as="offset" />
          </mxGeometry>
        </mxCell>
        <mxCell id="fs_kRZp0xW7BOfJZ6GTR-165" value="" style="shape=link;html=1;rounded=0;exitX=0.5;exitY=0;exitDx=0;exitDy=0;entryX=0.46;entryY=1;entryDx=0;entryDy=0;entryPerimeter=0;" parent="1" source="fs_kRZp0xW7BOfJZ6GTR-157" target="fs_kRZp0xW7BOfJZ6GTR-141" edge="1">
          <mxGeometry relative="1" as="geometry">
            <mxPoint x="624" y="890" as="sourcePoint" />
            <mxPoint x="340" y="910" as="targetPoint" />
          </mxGeometry>
        </mxCell>
        <mxCell id="fs_kRZp0xW7BOfJZ6GTR-166" value="N" style="resizable=0;html=1;whiteSpace=wrap;align=right;verticalAlign=bottom;" parent="fs_kRZp0xW7BOfJZ6GTR-165" connectable="0" vertex="1">
          <mxGeometry x="1" relative="1" as="geometry">
            <mxPoint x="20" y="20" as="offset" />
          </mxGeometry>
        </mxCell>
        <mxCell id="fs_kRZp0xW7BOfJZ6GTR-169" value="Visitor" style="swimlane;childLayout=stackLayout;horizontal=1;startSize=35;horizontalStack=0;rounded=1;fontSize=14;fontStyle=0;strokeWidth=2;resizeParent=0;resizeLast=1;shadow=0;dashed=0;align=center;arcSize=4;whiteSpace=wrap;html=1;" parent="1" vertex="1" collapsed="1">
          <mxGeometry x="829.6199999999999" y="950" width="80" height="35" as="geometry">
            <mxRectangle x="85" y="940" width="100" height="150" as="alternateBounds" />
          </mxGeometry>
        </mxCell>
        <mxCell id="fs_kRZp0xW7BOfJZ6GTR-170" value="visitor_id&lt;div&gt;first_name&lt;/div&gt;&lt;div&gt;last_name&lt;/div&gt;&lt;div&gt;birth_date&lt;/div&gt;&lt;div&gt;age()&lt;/div&gt;&lt;div&gt;email&lt;/div&gt;&lt;div&gt;phone&lt;/div&gt;" style="align=left;strokeColor=none;fillColor=none;spacingLeft=4;spacingRight=4;fontSize=12;verticalAlign=top;resizable=0;rotatable=0;part=1;html=1;whiteSpace=wrap;" parent="fs_kRZp0xW7BOfJZ6GTR-169" vertex="1">
          <mxGeometry y="35" width="100" height="115" as="geometry" />
        </mxCell>
        <mxCell id="fs_kRZp0xW7BOfJZ6GTR-173" value="buyer" style="shape=rhombus;perimeter=rhombusPerimeter;whiteSpace=wrap;html=1;align=center;" parent="1" vertex="1">
          <mxGeometry x="570" y="750" width="80" height="40" as="geometry" />
        </mxCell>
        <mxCell id="fs_kRZp0xW7BOfJZ6GTR-174" value="seller" style="shape=rhombus;perimeter=rhombusPerimeter;whiteSpace=wrap;html=1;align=center;" parent="1" vertex="1">
          <mxGeometry x="705.25" y="947.5" width="80" height="40" as="geometry" />
        </mxCell>
        <mxCell id="fs_kRZp0xW7BOfJZ6GTR-175" value="about" style="shape=rhombus;perimeter=rhombusPerimeter;whiteSpace=wrap;html=1;align=center;" parent="1" vertex="1">
          <mxGeometry x="839.9999999999999" y="750" width="80" height="40" as="geometry" />
        </mxCell>
        <mxCell id="fs_kRZp0xW7BOfJZ6GTR-176" value="" style="shape=link;html=1;rounded=0;exitX=0.5;exitY=1;exitDx=0;exitDy=0;entryX=1;entryY=0.25;entryDx=0;entryDy=0;edgeStyle=orthogonalEdgeStyle;" parent="1" source="fs_kRZp0xW7BOfJZ6GTR-175" target="fs_kRZp0xW7BOfJZ6GTR-153" edge="1">
          <mxGeometry relative="1" as="geometry">
            <mxPoint x="900.3799999999999" y="849.38" as="sourcePoint" />
            <mxPoint x="819.9999999999999" y="845" as="targetPoint" />
          </mxGeometry>
        </mxCell>
        <mxCell id="fs_kRZp0xW7BOfJZ6GTR-177" value="1" style="resizable=0;html=1;whiteSpace=wrap;align=right;verticalAlign=bottom;" parent="fs_kRZp0xW7BOfJZ6GTR-176" connectable="0" vertex="1">
          <mxGeometry x="1" relative="1" as="geometry">
            <mxPoint x="9" y="-1" as="offset" />
          </mxGeometry>
        </mxCell>
        <mxCell id="fs_kRZp0xW7BOfJZ6GTR-178" value="" style="endArrow=none;html=1;rounded=0;exitX=0.5;exitY=0;exitDx=0;exitDy=0;entryX=1;entryY=0.75;entryDx=0;entryDy=0;edgeStyle=orthogonalEdgeStyle;" parent="1" source="fs_kRZp0xW7BOfJZ6GTR-175" target="fs_kRZp0xW7BOfJZ6GTR-129" edge="1">
          <mxGeometry relative="1" as="geometry">
            <mxPoint x="810.3799999999999" y="800" as="sourcePoint" />
            <mxPoint x="1000.3799999999999" y="830" as="targetPoint" />
          </mxGeometry>
        </mxCell>
        <mxCell id="fs_kRZp0xW7BOfJZ6GTR-179" value="1" style="resizable=0;html=1;whiteSpace=wrap;align=right;verticalAlign=bottom;" parent="fs_kRZp0xW7BOfJZ6GTR-178" connectable="0" vertex="1">
          <mxGeometry x="1" relative="1" as="geometry">
            <mxPoint x="11" y="-1" as="offset" />
          </mxGeometry>
        </mxCell>
        <mxCell id="fs_kRZp0xW7BOfJZ6GTR-180" value="" style="shape=link;html=1;rounded=0;exitX=0.5;exitY=0;exitDx=0;exitDy=0;entryX=0.5;entryY=1;entryDx=0;entryDy=0;" parent="1" source="fs_kRZp0xW7BOfJZ6GTR-174" target="fs_kRZp0xW7BOfJZ6GTR-154" edge="1">
          <mxGeometry relative="1" as="geometry">
            <mxPoint x="629.8699999999999" y="950" as="sourcePoint" />
            <mxPoint x="590" y="930" as="targetPoint" />
          </mxGeometry>
        </mxCell>
        <mxCell id="fs_kRZp0xW7BOfJZ6GTR-181" value="1" style="resizable=0;html=1;whiteSpace=wrap;align=right;verticalAlign=bottom;" parent="fs_kRZp0xW7BOfJZ6GTR-180" connectable="0" vertex="1">
          <mxGeometry x="1" relative="1" as="geometry">
            <mxPoint x="15" y="20" as="offset" />
          </mxGeometry>
        </mxCell>
        <mxCell id="fs_kRZp0xW7BOfJZ6GTR-182" value="" style="shape=link;html=1;rounded=0;exitX=0.5;exitY=1;exitDx=0;exitDy=0;entryX=0;entryY=0.25;entryDx=0;entryDy=0;edgeStyle=orthogonalEdgeStyle;" parent="1" source="fs_kRZp0xW7BOfJZ6GTR-173" target="fs_kRZp0xW7BOfJZ6GTR-153" edge="1">
          <mxGeometry relative="1" as="geometry">
            <mxPoint x="550" y="820" as="sourcePoint" />
            <mxPoint x="640" y="980" as="targetPoint" />
          </mxGeometry>
        </mxCell>
        <mxCell id="fs_kRZp0xW7BOfJZ6GTR-183" value="1" style="resizable=0;html=1;whiteSpace=wrap;align=right;verticalAlign=bottom;" parent="fs_kRZp0xW7BOfJZ6GTR-182" connectable="0" vertex="1">
          <mxGeometry x="1" relative="1" as="geometry">
            <mxPoint y="-5" as="offset" />
          </mxGeometry>
        </mxCell>
        <mxCell id="fs_kRZp0xW7BOfJZ6GTR-184" value="" style="endArrow=none;html=1;rounded=0;exitX=0.5;exitY=0;exitDx=0;exitDy=0;entryX=0;entryY=0.75;entryDx=0;entryDy=0;edgeStyle=orthogonalEdgeStyle;" parent="1" source="fs_kRZp0xW7BOfJZ6GTR-173" target="fs_kRZp0xW7BOfJZ6GTR-129" edge="1">
          <mxGeometry relative="1" as="geometry">
            <mxPoint x="685.2399999999993" y="1080" as="sourcePoint" />
            <mxPoint x="749.8699999999999" y="1080" as="targetPoint" />
          </mxGeometry>
        </mxCell>
        <mxCell id="fs_kRZp0xW7BOfJZ6GTR-185" value="1" style="resizable=0;html=1;whiteSpace=wrap;align=right;verticalAlign=bottom;" parent="fs_kRZp0xW7BOfJZ6GTR-184" connectable="0" vertex="1">
          <mxGeometry x="1" relative="1" as="geometry" />
        </mxCell>
        <mxCell id="fs_kRZp0xW7BOfJZ6GTR-186" value="" style="endArrow=none;html=1;rounded=0;exitX=1;exitY=0.5;exitDx=0;exitDy=0;entryX=0;entryY=0.5;entryDx=0;entryDy=0;" parent="1" source="fs_kRZp0xW7BOfJZ6GTR-174" target="fs_kRZp0xW7BOfJZ6GTR-169" edge="1">
          <mxGeometry relative="1" as="geometry">
            <mxPoint x="1345.3400000000001" y="879.09" as="sourcePoint" />
            <mxPoint x="1399.96" y="879.09" as="targetPoint" />
          </mxGeometry>
        </mxCell>
        <mxCell id="fs_kRZp0xW7BOfJZ6GTR-187" value="1" style="resizable=0;html=1;whiteSpace=wrap;align=right;verticalAlign=bottom;" parent="fs_kRZp0xW7BOfJZ6GTR-186" connectable="0" vertex="1">
          <mxGeometry x="1" relative="1" as="geometry" />
        </mxCell>
        <mxCell id="XKHwRflBJff935lDJLE8-4" value="member_of" style="shape=associativeEntity;whiteSpace=wrap;html=1;align=center;" parent="1" vertex="1">
          <mxGeometry x="1585.0000000000002" y="680" width="80" height="50" as="geometry" />
        </mxCell>
        <mxCell id="XKHwRflBJff935lDJLE8-10" value="" style="shape=link;html=1;rounded=0;exitX=0.5;exitY=1;exitDx=0;exitDy=0;edgeStyle=orthogonalEdgeStyle;entryX=1;entryY=0.5;entryDx=0;entryDy=0;" parent="1" source="fs_kRZp0xW7BOfJZ6GTR-19" target="XKHwRflBJff935lDJLE8-4" edge="1">
          <mxGeometry relative="1" as="geometry">
            <mxPoint x="1795.0000000000002" y="560.19" as="sourcePoint" />
            <mxPoint x="1725.0000000000002" y="560" as="targetPoint" />
          </mxGeometry>
        </mxCell>
        <mxCell id="XKHwRflBJff935lDJLE8-11" value="M" style="resizable=0;html=1;whiteSpace=wrap;align=left;verticalAlign=bottom;" parent="XKHwRflBJff935lDJLE8-10" connectable="0" vertex="1">
          <mxGeometry x="-1" relative="1" as="geometry">
            <mxPoint y="17" as="offset" />
          </mxGeometry>
        </mxCell>
        <mxCell id="XKHwRflBJff935lDJLE8-14" value="" style="endArrow=none;html=1;rounded=0;entryX=0.5;entryY=1;entryDx=0;entryDy=0;edgeStyle=orthogonalEdgeStyle;exitX=0;exitY=0.5;exitDx=0;exitDy=0;" parent="1" source="XKHwRflBJff935lDJLE8-4" target="fs_kRZp0xW7BOfJZ6GTR-17" edge="1">
          <mxGeometry relative="1" as="geometry">
            <mxPoint x="1735.0000000000002" y="440" as="sourcePoint" />
            <mxPoint x="1775.0000000000002" y="430" as="targetPoint" />
          </mxGeometry>
        </mxCell>
        <mxCell id="XKHwRflBJff935lDJLE8-15" value="N" style="resizable=0;html=1;whiteSpace=wrap;align=right;verticalAlign=bottom;" parent="XKHwRflBJff935lDJLE8-14" connectable="0" vertex="1">
          <mxGeometry x="1" relative="1" as="geometry">
            <mxPoint y="17" as="offset" />
          </mxGeometry>
        </mxCell>
        <mxCell id="XKHwRflBJff935lDJLE8-17" value="TicketCategory" style="swimlane;childLayout=stackLayout;horizontal=1;startSize=40;horizontalStack=0;rounded=1;fontSize=14;fontStyle=0;strokeWidth=2;resizeParent=0;resizeLast=1;shadow=0;dashed=0;align=center;arcSize=4;whiteSpace=wrap;html=1;" parent="1" vertex="1">
          <mxGeometry x="540" y="182.5" width="100" height="87.5" as="geometry" />
        </mxCell>
        <mxCell id="XKHwRflBJff935lDJLE8-18" value="&lt;u&gt;category_id&lt;/u&gt;&lt;br&gt;name" style="align=left;strokeColor=none;fillColor=none;spacingLeft=4;spacingRight=4;fontSize=12;verticalAlign=top;resizable=0;rotatable=0;part=1;html=1;whiteSpace=wrap;" parent="XKHwRflBJff935lDJLE8-17" vertex="1">
          <mxGeometry y="40" width="100" height="47.5" as="geometry" />
        </mxCell>
        <mxCell id="XKHwRflBJff935lDJLE8-19" value="is" style="shape=rhombus;perimeter=rhombusPerimeter;whiteSpace=wrap;html=1;align=center;" parent="1" vertex="1">
          <mxGeometry x="550" y="340" width="80" height="40" as="geometry" />
        </mxCell>
        <mxCell id="XKHwRflBJff935lDJLE8-20" value="" style="endArrow=none;html=1;rounded=0;entryX=0.5;entryY=1;entryDx=0;entryDy=0;exitX=0.5;exitY=0;exitDx=0;exitDy=0;" parent="1" source="XKHwRflBJff935lDJLE8-19" target="XKHwRflBJff935lDJLE8-18" edge="1">
          <mxGeometry relative="1" as="geometry">
            <mxPoint x="485" y="291.25" as="sourcePoint" />
            <mxPoint x="435" y="296.25" as="targetPoint" />
          </mxGeometry>
        </mxCell>
        <mxCell id="XKHwRflBJff935lDJLE8-21" value="N" style="resizable=0;html=1;whiteSpace=wrap;align=right;verticalAlign=bottom;" parent="XKHwRflBJff935lDJLE8-20" connectable="0" vertex="1">
          <mxGeometry x="1" relative="1" as="geometry">
            <mxPoint y="18" as="offset" />
          </mxGeometry>
        </mxCell>
        <mxCell id="XKHwRflBJff935lDJLE8-22" value="" style="shape=link;html=1;rounded=0;exitX=1;exitY=0.5;exitDx=0;exitDy=0;entryX=0.001;entryY=0.199;entryDx=0;entryDy=0;entryPerimeter=0;" parent="1" source="XKHwRflBJff935lDJLE8-19" target="fs_kRZp0xW7BOfJZ6GTR-119" edge="1">
          <mxGeometry relative="1" as="geometry">
            <mxPoint x="1335" y="322.5" as="sourcePoint" />
            <mxPoint x="680" y="360" as="targetPoint" />
          </mxGeometry>
        </mxCell>
        <mxCell id="XKHwRflBJff935lDJLE8-23" value="1" style="resizable=0;html=1;whiteSpace=wrap;align=right;verticalAlign=bottom;" parent="XKHwRflBJff935lDJLE8-22" connectable="0" vertex="1">
          <mxGeometry x="1" relative="1" as="geometry">
            <mxPoint x="1" y="-1" as="offset" />
          </mxGeometry>
        </mxCell>
        <mxCell id="XKHwRflBJff935lDJLE8-24" value="rates" style="shape=rhombus;perimeter=rhombusPerimeter;whiteSpace=wrap;html=1;align=center;" parent="1" vertex="1">
          <mxGeometry x="360" y="55" width="80" height="40" as="geometry" />
        </mxCell>
        <mxCell id="XKHwRflBJff935lDJLE8-26" value="Performance" style="swimlane;childLayout=stackLayout;horizontal=1;startSize=40;horizontalStack=0;rounded=1;fontSize=14;fontStyle=0;strokeWidth=2;resizeParent=0;resizeLast=1;shadow=0;dashed=0;align=center;arcSize=4;whiteSpace=wrap;html=1;" parent="1" vertex="1" collapsed="1">
          <mxGeometry x="340" y="-40" width="120" height="40" as="geometry">
            <mxRectangle x="470" y="520" width="100" height="150" as="alternateBounds" />
          </mxGeometry>
        </mxCell>
        <mxCell id="XKHwRflBJff935lDJLE8-27" value="&lt;u&gt;performance_id&lt;br&gt;&lt;/u&gt;perf_type&lt;br&gt;&lt;div&gt;event_order&lt;br&gt;start_time&lt;br&gt;duration&lt;br&gt;end_time()&lt;/div&gt;" style="align=left;strokeColor=none;fillColor=none;spacingLeft=4;spacingRight=4;fontSize=12;verticalAlign=top;resizable=0;rotatable=0;part=1;html=1;whiteSpace=wrap;" parent="XKHwRflBJff935lDJLE8-26" vertex="1">
          <mxGeometry y="40" width="100" height="110" as="geometry" />
        </mxCell>
        <mxCell id="XKHwRflBJff935lDJLE8-28" value="" style="endArrow=none;html=1;rounded=0;exitX=0.5;exitY=0;exitDx=0;exitDy=0;entryX=0.5;entryY=1;entryDx=0;entryDy=0;" parent="1" source="XKHwRflBJff935lDJLE8-24" target="XKHwRflBJff935lDJLE8-26" edge="1">
          <mxGeometry relative="1" as="geometry">
            <mxPoint x="430" y="-55" as="sourcePoint" />
            <mxPoint x="280" y="-15" as="targetPoint" />
          </mxGeometry>
        </mxCell>
        <mxCell id="XKHwRflBJff935lDJLE8-29" value="1" style="resizable=0;html=1;whiteSpace=wrap;align=right;verticalAlign=bottom;" parent="XKHwRflBJff935lDJLE8-28" connectable="0" vertex="1">
          <mxGeometry x="1" relative="1" as="geometry">
            <mxPoint y="20" as="offset" />
          </mxGeometry>
        </mxCell>
        <mxCell id="XKHwRflBJff935lDJLE8-30" value="" style="shape=link;html=1;rounded=0;exitX=0.5;exitY=1;exitDx=0;exitDy=0;entryX=0.5;entryY=0;entryDx=0;entryDy=0;" parent="1" source="XKHwRflBJff935lDJLE8-24" target="fs_kRZp0xW7BOfJZ6GTR-133" edge="1">
          <mxGeometry relative="1" as="geometry">
            <mxPoint x="430" y="-15" as="sourcePoint" />
            <mxPoint x="430" y="25" as="targetPoint" />
          </mxGeometry>
        </mxCell>
        <mxCell id="XKHwRflBJff935lDJLE8-31" value="N" style="resizable=0;html=1;whiteSpace=wrap;align=right;verticalAlign=bottom;" parent="XKHwRflBJff935lDJLE8-30" connectable="0" vertex="1">
          <mxGeometry x="1" relative="1" as="geometry">
            <mxPoint x="-2" as="offset" />
          </mxGeometry>
        </mxCell>
        <mxCell id="XKHwRflBJff935lDJLE8-32" value="requests" style="shape=rhombus;perimeter=rhombusPerimeter;whiteSpace=wrap;html=1;align=center;" parent="1" vertex="1">
          <mxGeometry x="150" y="640" width="80" height="40" as="geometry" />
        </mxCell>
        <mxCell id="XKHwRflBJff935lDJLE8-39" value="" style="endArrow=none;html=1;rounded=0;dashed=1;dashPattern=1 2;exitX=1;exitY=0.5;exitDx=0;exitDy=0;entryX=-0.004;entryY=0.614;entryDx=0;entryDy=0;entryPerimeter=0;" parent="1" source="XKHwRflBJff935lDJLE8-32" target="fs_kRZp0xW7BOfJZ6GTR-143" edge="1">
          <mxGeometry relative="1" as="geometry">
            <mxPoint x="1330" y="900" as="sourcePoint" />
            <mxPoint x="1490" y="900" as="targetPoint" />
          </mxGeometry>
        </mxCell>
        <mxCell id="XKHwRflBJff935lDJLE8-40" value="1" style="resizable=0;html=1;whiteSpace=wrap;align=right;verticalAlign=bottom;" parent="XKHwRflBJff935lDJLE8-39" connectable="0" vertex="1">
          <mxGeometry x="1" relative="1" as="geometry" />
        </mxCell>
        <mxCell id="XKHwRflBJff935lDJLE8-41" value="" style="endArrow=none;html=1;rounded=0;dashed=1;dashPattern=1 2;exitX=1;exitY=0.5;exitDx=0;exitDy=0;entryX=-0.008;entryY=0.819;entryDx=0;entryDy=0;entryPerimeter=0;" parent="1" source="XKHwRflBJff935lDJLE8-50" target="fs_kRZp0xW7BOfJZ6GTR-120" edge="1">
          <mxGeometry relative="1" as="geometry">
            <mxPoint x="1540" y="710" as="sourcePoint" />
            <mxPoint x="670" y="460" as="targetPoint" />
          </mxGeometry>
        </mxCell>
        <mxCell id="XKHwRflBJff935lDJLE8-42" value="1" style="resizable=0;html=1;whiteSpace=wrap;align=right;verticalAlign=bottom;" parent="XKHwRflBJff935lDJLE8-41" connectable="0" vertex="1">
          <mxGeometry x="1" relative="1" as="geometry">
            <mxPoint y="17" as="offset" />
          </mxGeometry>
        </mxCell>
        <mxCell id="XKHwRflBJff935lDJLE8-43" value="Event" style="swimlane;childLayout=stackLayout;horizontal=1;startSize=40;horizontalStack=0;rounded=1;fontSize=14;fontStyle=0;strokeWidth=2;resizeParent=0;resizeLast=1;shadow=0;dashed=0;align=center;arcSize=4;whiteSpace=wrap;html=1;" parent="1" vertex="1" collapsed="1">
          <mxGeometry x="150" y="730" width="80" height="40" as="geometry">
            <mxRectangle x="470" y="270" width="100" height="150" as="alternateBounds" />
          </mxGeometry>
        </mxCell>
        <mxCell id="XKHwRflBJff935lDJLE8-44" value="&lt;u&gt;event_id&lt;/u&gt;&lt;div&gt;date&lt;/div&gt;&lt;div&gt;festival_day&lt;/div&gt;&lt;div&gt;start_time&lt;br&gt;&lt;/div&gt;&lt;div&gt;end_time&lt;/div&gt;&lt;div&gt;number_of_perf()&lt;/div&gt;" style="align=left;strokeColor=none;fillColor=none;spacingLeft=4;spacingRight=4;fontSize=12;verticalAlign=top;resizable=0;rotatable=0;part=1;html=1;whiteSpace=wrap;" parent="XKHwRflBJff935lDJLE8-43" vertex="1">
          <mxGeometry y="40" width="100" height="110" as="geometry" />
        </mxCell>
        <mxCell id="XKHwRflBJff935lDJLE8-45" value="TicketCategory" style="swimlane;childLayout=stackLayout;horizontal=1;startSize=40;horizontalStack=0;rounded=1;fontSize=14;fontStyle=0;strokeWidth=2;resizeParent=0;resizeLast=1;shadow=0;dashed=0;align=center;arcSize=4;whiteSpace=wrap;html=1;" parent="1" vertex="1" collapsed="1">
          <mxGeometry x="137.4999999999999" y="485" width="105" height="40" as="geometry">
            <mxRectangle x="1400" y="212.5" width="100" height="90" as="alternateBounds" />
          </mxGeometry>
        </mxCell>
        <mxCell id="XKHwRflBJff935lDJLE8-46" value="&lt;u&gt;category_id&lt;/u&gt;&lt;br&gt;name&lt;br&gt;descr ???" style="align=left;strokeColor=none;fillColor=none;spacingLeft=4;spacingRight=4;fontSize=12;verticalAlign=top;resizable=0;rotatable=0;part=1;html=1;whiteSpace=wrap;" parent="XKHwRflBJff935lDJLE8-45" vertex="1">
          <mxGeometry y="40" width="100" height="50" as="geometry" />
        </mxCell>
        <mxCell id="XKHwRflBJff935lDJLE8-47" value="" style="endArrow=none;html=1;rounded=0;dashed=1;dashPattern=1 2;exitX=1;exitY=0.5;exitDx=0;exitDy=0;entryX=0.004;entryY=0.274;entryDx=0;entryDy=0;entryPerimeter=0;" parent="1" source="XKHwRflBJff935lDJLE8-49" target="fs_kRZp0xW7BOfJZ6GTR-142" edge="1">
          <mxGeometry relative="1" as="geometry">
            <mxPoint x="1370" y="865" as="sourcePoint" />
            <mxPoint x="330" y="610" as="targetPoint" />
          </mxGeometry>
        </mxCell>
        <mxCell id="XKHwRflBJff935lDJLE8-48" value="1" style="resizable=0;html=1;whiteSpace=wrap;align=right;verticalAlign=bottom;" parent="XKHwRflBJff935lDJLE8-47" connectable="0" vertex="1">
          <mxGeometry x="1" relative="1" as="geometry">
            <mxPoint x="-2" as="offset" />
          </mxGeometry>
        </mxCell>
        <mxCell id="XKHwRflBJff935lDJLE8-49" value="requests" style="shape=rhombus;perimeter=rhombusPerimeter;whiteSpace=wrap;html=1;align=center;" parent="1" vertex="1">
          <mxGeometry x="150" y="590" width="80" height="40" as="geometry" />
        </mxCell>
        <mxCell id="XKHwRflBJff935lDJLE8-50" value="requests" style="shape=rhombus;perimeter=rhombusPerimeter;whiteSpace=wrap;html=1;align=center;" parent="1" vertex="1">
          <mxGeometry x="355" y="440" width="80" height="40" as="geometry" />
        </mxCell>
        <mxCell id="XKHwRflBJff935lDJLE8-51" value="" style="endArrow=none;html=1;rounded=0;dashed=1;dashPattern=1 2;exitX=0.5;exitY=1;exitDx=0;exitDy=0;entryX=0.5;entryY=0;entryDx=0;entryDy=0;" parent="1" source="XKHwRflBJff935lDJLE8-50" target="fs_kRZp0xW7BOfJZ6GTR-142" edge="1">
          <mxGeometry relative="1" as="geometry">
            <mxPoint x="1330" y="875" as="sourcePoint" />
            <mxPoint x="100" y="830" as="targetPoint" />
          </mxGeometry>
        </mxCell>
        <mxCell id="XKHwRflBJff935lDJLE8-52" value="1" style="resizable=0;html=1;whiteSpace=wrap;align=right;verticalAlign=bottom;" parent="XKHwRflBJff935lDJLE8-51" connectable="0" vertex="1">
          <mxGeometry x="1" relative="1" as="geometry">
            <mxPoint x="12" as="offset" />
          </mxGeometry>
        </mxCell>
        <mxCell id="XKHwRflBJff935lDJLE8-53" value="" style="endArrow=none;html=1;rounded=0;dashed=1;dashPattern=1 2;exitX=0.5;exitY=1;exitDx=0;exitDy=0;entryX=0.5;entryY=0;entryDx=0;entryDy=0;" parent="1" source="XKHwRflBJff935lDJLE8-32" target="XKHwRflBJff935lDJLE8-43" edge="1">
          <mxGeometry relative="1" as="geometry">
            <mxPoint x="140.63" y="980" as="sourcePoint" />
            <mxPoint x="175" y="880" as="targetPoint" />
          </mxGeometry>
        </mxCell>
        <mxCell id="XKHwRflBJff935lDJLE8-54" value="N" style="resizable=0;html=1;whiteSpace=wrap;align=right;verticalAlign=bottom;" parent="XKHwRflBJff935lDJLE8-53" connectable="0" vertex="1">
          <mxGeometry x="1" relative="1" as="geometry">
            <mxPoint x="15" as="offset" />
          </mxGeometry>
        </mxCell>
        <mxCell id="XKHwRflBJff935lDJLE8-55" value="" style="endArrow=none;html=1;rounded=0;dashed=1;dashPattern=1 2;exitX=0.5;exitY=0;exitDx=0;exitDy=0;entryX=0.5;entryY=1;entryDx=0;entryDy=0;" parent="1" source="XKHwRflBJff935lDJLE8-49" target="XKHwRflBJff935lDJLE8-45" edge="1">
          <mxGeometry relative="1" as="geometry">
            <mxPoint x="340.63" y="1010" as="sourcePoint" />
            <mxPoint x="240" y="820" as="targetPoint" />
          </mxGeometry>
        </mxCell>
        <mxCell id="XKHwRflBJff935lDJLE8-56" value="N" style="resizable=0;html=1;whiteSpace=wrap;align=right;verticalAlign=bottom;" parent="XKHwRflBJff935lDJLE8-55" connectable="0" vertex="1">
          <mxGeometry x="1" relative="1" as="geometry">
            <mxPoint x="15" y="17" as="offset" />
          </mxGeometry>
        </mxCell>
        <mxCell id="XKHwRflBJff935lDJLE8-59" value="made_by" style="shape=rhombus;perimeter=rhombusPerimeter;whiteSpace=wrap;html=1;align=center;" parent="1" vertex="1">
          <mxGeometry x="910" y="645" width="80" height="40" as="geometry" />
        </mxCell>
        <mxCell id="XKHwRflBJff935lDJLE8-60" value="" style="endArrow=none;html=1;rounded=0;exitX=1;exitY=0.5;exitDx=0;exitDy=0;entryX=0.006;entryY=0.708;entryDx=0;entryDy=0;entryPerimeter=0;" parent="1" source="XKHwRflBJff935lDJLE8-59" target="fs_kRZp0xW7BOfJZ6GTR-141" edge="1">
          <mxGeometry relative="1" as="geometry">
            <mxPoint x="980" y="640" as="sourcePoint" />
            <mxPoint x="1030" y="665" as="targetPoint" />
          </mxGeometry>
        </mxCell>
        <mxCell id="XKHwRflBJff935lDJLE8-61" value="1" style="resizable=0;html=1;whiteSpace=wrap;align=right;verticalAlign=bottom;" parent="XKHwRflBJff935lDJLE8-60" connectable="0" vertex="1">
          <mxGeometry x="1" relative="1" as="geometry">
            <mxPoint as="offset" />
          </mxGeometry>
        </mxCell>
        <mxCell id="XKHwRflBJff935lDJLE8-68" value="" style="shape=link;html=1;rounded=0;exitX=0;exitY=0.5;exitDx=0;exitDy=0;entryX=0.997;entryY=0.39;entryDx=0;entryDy=0;entryPerimeter=0;" parent="1" source="XKHwRflBJff935lDJLE8-59" target="fs_kRZp0xW7BOfJZ6GTR-129" edge="1">
          <mxGeometry relative="1" as="geometry">
            <mxPoint x="130" y="730" as="sourcePoint" />
            <mxPoint x="840" y="665" as="targetPoint" />
          </mxGeometry>
        </mxCell>
        <mxCell id="XKHwRflBJff935lDJLE8-69" value="N" style="resizable=0;html=1;whiteSpace=wrap;align=right;verticalAlign=bottom;" parent="XKHwRflBJff935lDJLE8-68" connectable="0" vertex="1">
          <mxGeometry x="1" relative="1" as="geometry">
            <mxPoint x="14" as="offset" />
          </mxGeometry>
        </mxCell>
        <mxCell id="7mpWaX-R9mBhcbKAR2uK-1" value="" style="shape=link;html=1;rounded=0;exitX=1;exitY=0.5;exitDx=0;exitDy=0;entryX=0;entryY=0.731;entryDx=0;entryDy=0;entryPerimeter=0;" edge="1" parent="1" source="fs_kRZp0xW7BOfJZ6GTR-24" target="fs_kRZp0xW7BOfJZ6GTR-4">
          <mxGeometry relative="1" as="geometry">
            <mxPoint x="560" y="170" as="sourcePoint" />
            <mxPoint x="1510" y="75" as="targetPoint" />
          </mxGeometry>
        </mxCell>
        <mxCell id="7mpWaX-R9mBhcbKAR2uK-2" value="1" style="resizable=0;html=1;whiteSpace=wrap;align=right;verticalAlign=bottom;" connectable="0" vertex="1" parent="7mpWaX-R9mBhcbKAR2uK-1">
          <mxGeometry x="1" relative="1" as="geometry" />
        </mxCell>
        <mxCell id="7mpWaX-R9mBhcbKAR2uK-3" value="" style="shape=link;html=1;rounded=0;exitX=0;exitY=0.5;exitDx=0;exitDy=0;entryX=1;entryY=0.5;entryDx=0;entryDy=0;" edge="1" parent="1" source="fs_kRZp0xW7BOfJZ6GTR-24" target="fs_kRZp0xW7BOfJZ6GTR-2">
          <mxGeometry relative="1" as="geometry">
            <mxPoint x="560" y="120" as="sourcePoint" />
            <mxPoint x="570" y="85" as="targetPoint" />
          </mxGeometry>
        </mxCell>
        <mxCell id="7mpWaX-R9mBhcbKAR2uK-4" value="N" style="resizable=0;html=1;whiteSpace=wrap;align=right;verticalAlign=bottom;" connectable="0" vertex="1" parent="7mpWaX-R9mBhcbKAR2uK-3">
          <mxGeometry x="1" relative="1" as="geometry">
            <mxPoint x="13" as="offset" />
          </mxGeometry>
        </mxCell>
        <mxCell id="7mpWaX-R9mBhcbKAR2uK-7" value="has_role" style="shape=rhombus;perimeter=rhombusPerimeter;whiteSpace=wrap;html=1;align=center;" vertex="1" parent="1">
          <mxGeometry x="705.25" y="100" width="80" height="40" as="geometry" />
        </mxCell>
        <mxCell id="7mpWaX-R9mBhcbKAR2uK-8" value="" style="shape=link;html=1;rounded=0;exitX=1;exitY=0.5;exitDx=0;exitDy=0;entryX=0;entryY=0.737;entryDx=0;entryDy=0;entryPerimeter=0;" edge="1" parent="1" source="7mpWaX-R9mBhcbKAR2uK-7" target="fs_kRZp0xW7BOfJZ6GTR-13">
          <mxGeometry relative="1" as="geometry">
            <mxPoint x="655" y="80" as="sourcePoint" />
            <mxPoint x="860" y="120" as="targetPoint" />
          </mxGeometry>
        </mxCell>
        <mxCell id="7mpWaX-R9mBhcbKAR2uK-9" value="N" style="resizable=0;html=1;whiteSpace=wrap;align=right;verticalAlign=bottom;" connectable="0" vertex="1" parent="7mpWaX-R9mBhcbKAR2uK-8">
          <mxGeometry x="1" relative="1" as="geometry">
            <mxPoint x="-2" as="offset" />
          </mxGeometry>
        </mxCell>
        <mxCell id="7mpWaX-R9mBhcbKAR2uK-10" value="StaffRole" style="swimlane;childLayout=stackLayout;horizontal=1;startSize=40;horizontalStack=0;rounded=1;fontSize=14;fontStyle=0;strokeWidth=2;resizeParent=0;resizeLast=1;shadow=0;dashed=0;align=center;arcSize=4;whiteSpace=wrap;html=1;" vertex="1" parent="1">
          <mxGeometry x="540" y="65" width="100" height="85" as="geometry" />
        </mxCell>
        <mxCell id="7mpWaX-R9mBhcbKAR2uK-11" value="&lt;u&gt;role_id&lt;/u&gt;&lt;div&gt;name&lt;br&gt;&lt;br&gt;&lt;/div&gt;" style="align=left;strokeColor=none;fillColor=none;spacingLeft=4;spacingRight=4;fontSize=12;verticalAlign=top;resizable=0;rotatable=0;part=1;html=1;whiteSpace=wrap;" vertex="1" parent="7mpWaX-R9mBhcbKAR2uK-10">
          <mxGeometry y="40" width="100" height="45" as="geometry" />
        </mxCell>
        <mxCell id="7mpWaX-R9mBhcbKAR2uK-12" value="" style="shape=link;html=1;rounded=0;exitX=0;exitY=0.5;exitDx=0;exitDy=0;entryX=1;entryY=0.333;entryDx=0;entryDy=0;entryPerimeter=0;" edge="1" parent="1" source="7mpWaX-R9mBhcbKAR2uK-7" target="7mpWaX-R9mBhcbKAR2uK-11">
          <mxGeometry relative="1" as="geometry">
            <mxPoint x="690" y="70" as="sourcePoint" />
            <mxPoint x="670" y="120" as="targetPoint" />
          </mxGeometry>
        </mxCell>
        <mxCell id="7mpWaX-R9mBhcbKAR2uK-13" value="1" style="resizable=0;html=1;whiteSpace=wrap;align=right;verticalAlign=bottom;" connectable="0" vertex="1" parent="7mpWaX-R9mBhcbKAR2uK-12">
          <mxGeometry x="1" relative="1" as="geometry">
            <mxPoint x="10" as="offset" />
          </mxGeometry>
        </mxCell>
        <mxCell id="7mpWaX-R9mBhcbKAR2uK-20" style="edgeStyle=orthogonalEdgeStyle;rounded=0;orthogonalLoop=1;jettySize=auto;html=1;exitX=0.5;exitY=1;exitDx=0;exitDy=0;endArrow=none;startFill=0;startArrow=block;" edge="1" parent="1" source="fs_kRZp0xW7BOfJZ6GTR-15">
          <mxGeometry relative="1" as="geometry">
            <mxPoint x="1619.878787878788" y="560" as="targetPoint" />
          </mxGeometry>
        </mxCell>
        <mxCell id="7mpWaX-R9mBhcbKAR2uK-25" value="PaymentMethod" style="swimlane;childLayout=stackLayout;horizontal=1;startSize=40;horizontalStack=0;rounded=1;fontSize=14;fontStyle=0;strokeWidth=2;resizeParent=0;resizeLast=1;shadow=0;dashed=0;align=center;arcSize=4;whiteSpace=wrap;html=1;" vertex="1" parent="1">
          <mxGeometry x="865" y="395" width="110" height="85" as="geometry" />
        </mxCell>
        <mxCell id="7mpWaX-R9mBhcbKAR2uK-26" value="&lt;div&gt;&lt;u&gt;method_id&lt;/u&gt;&lt;/div&gt;&lt;div&gt;method_name&lt;/div&gt;" style="align=left;strokeColor=none;fillColor=none;spacingLeft=4;spacingRight=4;fontSize=12;verticalAlign=top;resizable=0;rotatable=0;part=1;html=1;whiteSpace=wrap;" vertex="1" parent="7mpWaX-R9mBhcbKAR2uK-25">
          <mxGeometry y="40" width="110" height="45" as="geometry" />
        </mxCell>
        <mxCell id="7mpWaX-R9mBhcbKAR2uK-27" value="paid_with" style="shape=rhombus;perimeter=rhombusPerimeter;whiteSpace=wrap;html=1;align=center;" vertex="1" parent="1">
          <mxGeometry x="880" y="330" width="80" height="40" as="geometry" />
        </mxCell>
        <mxCell id="7mpWaX-R9mBhcbKAR2uK-31" value="" style="shape=link;html=1;rounded=0;exitX=0;exitY=0.5;exitDx=0;exitDy=0;entryX=1.006;entryY=0.133;entryDx=0;entryDy=0;entryPerimeter=0;" edge="1" parent="1" source="7mpWaX-R9mBhcbKAR2uK-27" target="fs_kRZp0xW7BOfJZ6GTR-119">
          <mxGeometry relative="1" as="geometry">
            <mxPoint x="880" y="450" as="sourcePoint" />
            <mxPoint x="820" y="350" as="targetPoint" />
          </mxGeometry>
        </mxCell>
        <mxCell id="7mpWaX-R9mBhcbKAR2uK-32" value="N" style="resizable=0;html=1;whiteSpace=wrap;align=right;verticalAlign=bottom;" connectable="0" vertex="1" parent="7mpWaX-R9mBhcbKAR2uK-31">
          <mxGeometry x="1" relative="1" as="geometry">
            <mxPoint x="12" as="offset" />
          </mxGeometry>
        </mxCell>
        <mxCell id="7mpWaX-R9mBhcbKAR2uK-33" value="" style="endArrow=none;html=1;rounded=0;entryX=0.5;entryY=0;entryDx=0;entryDy=0;exitX=0.5;exitY=1;exitDx=0;exitDy=0;" edge="1" parent="1" source="7mpWaX-R9mBhcbKAR2uK-27" target="7mpWaX-R9mBhcbKAR2uK-25">
          <mxGeometry relative="1" as="geometry">
            <mxPoint x="730" y="370" as="sourcePoint" />
            <mxPoint x="890" y="370" as="targetPoint" />
          </mxGeometry>
        </mxCell>
        <mxCell id="7mpWaX-R9mBhcbKAR2uK-34" value="1" style="resizable=0;html=1;whiteSpace=wrap;align=right;verticalAlign=bottom;" connectable="0" vertex="1" parent="7mpWaX-R9mBhcbKAR2uK-33">
          <mxGeometry x="1" relative="1" as="geometry" />
        </mxCell>
        <mxCell id="7mpWaX-R9mBhcbKAR2uK-37" value="PerformanceType" style="swimlane;childLayout=stackLayout;horizontal=1;startSize=40;horizontalStack=0;rounded=1;fontSize=14;fontStyle=0;strokeWidth=2;resizeParent=0;resizeLast=1;shadow=0;dashed=0;align=center;arcSize=4;whiteSpace=wrap;html=1;" vertex="1" parent="1">
          <mxGeometry x="1220" y="657.5" width="120" height="85" as="geometry" />
        </mxCell>
        <mxCell id="7mpWaX-R9mBhcbKAR2uK-38" value="&lt;div&gt;&lt;u&gt;type_id&lt;/u&gt;&lt;/div&gt;&lt;div&gt;type_name&lt;/div&gt;" style="align=left;strokeColor=none;fillColor=none;spacingLeft=4;spacingRight=4;fontSize=12;verticalAlign=top;resizable=0;rotatable=0;part=1;html=1;whiteSpace=wrap;" vertex="1" parent="7mpWaX-R9mBhcbKAR2uK-37">
          <mxGeometry y="40" width="120" height="45" as="geometry" />
        </mxCell>
        <mxCell id="7mpWaX-R9mBhcbKAR2uK-40" value="perf_type" style="shape=rhombus;perimeter=rhombusPerimeter;whiteSpace=wrap;html=1;align=center;" vertex="1" parent="1">
          <mxGeometry x="1240" y="570" width="80" height="40" as="geometry" />
        </mxCell>
        <mxCell id="7mpWaX-R9mBhcbKAR2uK-41" value="" style="shape=link;html=1;rounded=0;exitX=0.5;exitY=0;exitDx=0;exitDy=0;entryX=0.5;entryY=1;entryDx=0;entryDy=0;" edge="1" parent="1" source="7mpWaX-R9mBhcbKAR2uK-40" target="fs_kRZp0xW7BOfJZ6GTR-11">
          <mxGeometry relative="1" as="geometry">
            <mxPoint x="1100" y="550" as="sourcePoint" />
            <mxPoint x="1080" y="480" as="targetPoint" />
          </mxGeometry>
        </mxCell>
        <mxCell id="7mpWaX-R9mBhcbKAR2uK-42" value="N" style="resizable=0;html=1;whiteSpace=wrap;align=right;verticalAlign=bottom;" connectable="0" vertex="1" parent="7mpWaX-R9mBhcbKAR2uK-41">
          <mxGeometry x="1" relative="1" as="geometry">
            <mxPoint x="15" y="20" as="offset" />
          </mxGeometry>
        </mxCell>
        <mxCell id="7mpWaX-R9mBhcbKAR2uK-43" value="" style="endArrow=none;html=1;rounded=0;exitX=0.5;exitY=1;exitDx=0;exitDy=0;entryX=0.5;entryY=0;entryDx=0;entryDy=0;" edge="1" parent="1" source="7mpWaX-R9mBhcbKAR2uK-40" target="7mpWaX-R9mBhcbKAR2uK-37">
          <mxGeometry relative="1" as="geometry">
            <mxPoint x="755" y="565" as="sourcePoint" />
            <mxPoint x="755" y="595" as="targetPoint" />
          </mxGeometry>
        </mxCell>
        <mxCell id="7mpWaX-R9mBhcbKAR2uK-44" value="1" style="resizable=0;html=1;whiteSpace=wrap;align=right;verticalAlign=bottom;" connectable="0" vertex="1" parent="7mpWaX-R9mBhcbKAR2uK-43">
          <mxGeometry x="1" relative="1" as="geometry">
            <mxPoint x="15" as="offset" />
          </mxGeometry>
        </mxCell>
      </root>
    </mxGraphModel>
  </diagram>
</mxfile>
